<svg width="24" height="24" viewBox="0 0 24 24" fill="none" xmlns="http://www.w3.org/2000/svg">
<path d="M7.29297 12.2929C7.68349 11.9024 8.31651 11.9024 8.70703 12.2929C9.09756 12.6834 9.09756 13.3164 8.70703 13.707L6.41406 15.9999H20C20.5523 15.9999 21 16.4476 21 16.9999C21 17.5522 20.5523 17.9999 20 17.9999H6.41406L8.70703 20.2929C9.09756 20.6834 9.09756 21.3164 8.70703 21.707C8.31651 22.0975 7.68349 22.0975 7.29297 21.707L3.29297 17.707C2.90244 17.3164 2.90244 16.6834 3.29297 16.2929L7.29297 12.2929ZM15.293 2.29289C15.6835 1.90237 16.3165 1.90237 16.707 2.29289L20.707 6.29289C21.0976 6.68342 21.0976 7.31643 20.707 7.70696L16.707 11.707C16.3165 12.0975 15.6835 12.0975 15.293 11.707C14.9024 11.3164 14.9024 10.6834 15.293 10.2929L17.5859 7.99992H4C3.44772 7.99992 3 7.55221 3 6.99992C3 6.44764 3.44772 5.99992 4 5.99992H17.5859L15.293 3.70696C14.9024 3.31643 14.9024 2.68342 15.293 2.29289Z" fill="currentColor"/>
</svg>
