<svg width="24" height="24" viewBox="0 0 24 24" fill="none" xmlns="http://www.w3.org/2000/svg">
<path d="M11.293 4.29289C11.6835 3.90237 12.3165 3.90237 12.707 4.29289C13.0976 4.68342 13.0976 5.31643 12.707 5.70696L6.41406 11.9999L12.707 18.2929C13.0976 18.6834 13.0976 19.3164 12.707 19.707C12.3165 20.0975 11.6835 20.0975 11.293 19.707L4.29297 12.707C3.90244 12.3164 3.90244 11.6834 4.29297 11.2929L11.293 4.29289Z" fill="currentColor"/>
<path d="M19 10.9999C19.5523 10.9999 20 11.4476 20 11.9999C20 12.5522 19.5523 12.9999 19 12.9999H5C4.44772 12.9999 4 12.5522 4 11.9999C4 11.4476 4.44772 10.9999 5 10.9999H19Z" fill="currentColor"/>
</svg>
