<svg width="24" height="24" viewBox="0 0 24 24" fill="none" xmlns="http://www.w3.org/2000/svg">
<path d="M12.8666 20.4998C13.1428 20.0216 13.7546 19.8584 14.2328 20.1346C14.7108 20.4107 14.8748 21.0217 14.599 21.4998C14.3357 21.9558 13.9564 22.3352 13.5004 22.5984C13.0444 22.8616 12.5268 22.9998 12.0004 22.9998C11.4739 22.9997 10.9563 22.8617 10.5004 22.5984C10.0444 22.3352 9.66599 21.9558 9.40271 21.4998C9.12676 21.0216 9.29075 20.4107 9.76892 20.1346C10.2472 19.8584 10.859 20.0215 11.1351 20.4998C11.2228 20.6517 11.3485 20.7783 11.5004 20.866C11.6523 20.9537 11.825 20.9997 12.0004 20.9998C12.1758 20.9998 12.3484 20.9537 12.5004 20.866C12.6524 20.7783 12.7788 20.6518 12.8666 20.4998ZM5.00037 7.9998C5.00054 6.79934 5.30989 5.6187 5.89783 4.57207C6.48573 3.52563 7.33285 2.64787 8.35779 2.02324C9.38286 1.39859 10.5517 1.04843 11.7513 1.00566C12.9511 0.962954 14.1424 1.22886 15.2094 1.7791C15.7001 2.03227 15.8921 2.63594 15.639 3.12675C15.3858 3.61729 14.7831 3.8095 14.2924 3.55644C13.5303 3.16348 12.6795 2.97321 11.8226 3.00371C10.9657 3.03425 10.131 3.28506 9.39881 3.73125C8.66664 4.17744 8.06094 4.80403 7.64099 5.55156C7.22108 6.29907 7.00054 7.14243 7.00037 7.9998C7.00037 10.3538 6.63149 11.9978 6.03357 13.2635C5.44349 14.5125 4.6609 15.32 4.00135 15.9998H20.0004C19.7159 15.7049 19.4497 15.3928 19.2035 15.0652C18.8718 14.6238 18.9605 13.9966 19.4017 13.6648C19.8432 13.3332 20.4703 13.4218 20.8021 13.8631C20.954 14.0652 21.1153 14.2603 21.2855 14.4471L21.4584 14.6307L21.4808 14.6541C21.7415 14.9407 21.9129 15.2971 21.975 15.6795C22.0371 16.0621 21.9872 16.4549 21.8304 16.8094C21.6737 17.1638 21.417 17.4651 21.0922 17.6766C20.7673 17.888 20.3879 17.9999 20.0004 17.9998H4.00037V17.9988C3.61312 17.9988 3.23414 17.8878 2.90955 17.6766C2.58476 17.4652 2.32806 17.1638 2.17127 16.8094C2.01448 16.4549 1.96366 16.0621 2.02576 15.6795C2.08786 15.297 2.2601 14.9407 2.52088 14.6541L2.54334 14.6307C3.20897 13.9445 3.78445 13.3414 4.22498 12.409C4.66444 11.4787 5.00037 10.1445 5.00037 7.9998ZM17.0004 10.9998V8.9998H15.0004C14.4482 8.99961 14.0004 8.55197 14.0004 7.9998C14.0005 7.44777 14.4483 7 15.0004 6.9998H17.0004V4.9998C17.0005 4.44777 17.4483 4 18.0004 3.9998C18.5526 3.9998 19.0002 4.44765 19.0004 4.9998V6.9998H21.0004C21.5526 6.9998 22.0002 7.44765 22.0004 7.9998C22.0004 8.55209 21.5527 8.9998 21.0004 8.9998H19.0004V10.9998C19.0004 11.5521 18.5527 11.9998 18.0004 11.9998C17.4482 11.9996 17.0004 11.552 17.0004 10.9998Z" fill="currentColor"/>
</svg>
