<svg width="24" height="24" viewBox="0 0 24 24" fill="none" xmlns="http://www.w3.org/2000/svg">
<path d="M12.8666 20.4998C13.1427 20.0216 13.7545 19.8575 14.2328 20.1336C14.711 20.4097 14.875 21.0215 14.599 21.4998C14.3357 21.9558 13.9564 22.3351 13.5004 22.5984C13.0444 22.8615 12.5268 22.9998 12.0004 22.9998C11.4739 22.9997 10.9563 22.8616 10.5004 22.5984C10.0444 22.3351 9.666 21.9558 9.40271 21.4998C9.12666 21.0215 9.29069 20.4097 9.76892 20.1336C10.2471 19.8577 10.859 20.0216 11.1351 20.4998C11.2229 20.6517 11.3485 20.7783 11.5004 20.866C11.6523 20.9537 11.825 20.9997 12.0004 20.9998C12.1758 20.9998 12.3484 20.9536 12.5004 20.866C12.6524 20.7782 12.7788 20.6518 12.8666 20.4998ZM5.00036 7.99978C5.00036 6.88891 5.26494 5.79391 5.77185 4.80544C6.27895 3.8168 7.01492 2.96245 7.91736 2.31423C8.81972 1.66616 9.8636 1.24178 10.9623 1.07693C12.0609 0.912138 13.183 1.01131 14.2357 1.36599C14.7591 1.54235 15.041 2.1102 14.8646 2.63357C14.6882 3.15681 14.1203 3.43784 13.597 3.2615C12.8451 3.00818 12.0438 2.93776 11.2592 3.05544C10.4743 3.17321 9.72797 3.47622 9.08337 3.93923C8.43908 4.40213 7.91425 5.01168 7.55212 5.71755C7.18992 6.42369 7.00036 7.20617 7.00036 7.99978C7.00036 10.3538 6.63159 11.9978 6.03357 13.2635C5.44331 14.5125 4.66026 15.3201 4.00134 15.9998H20.0013C19.781 15.7714 19.5711 15.5332 19.3734 15.2849C19.0296 14.8529 19.1007 14.2237 19.5326 13.8797C19.9646 13.5358 20.5939 13.607 20.9379 14.0388C21.0197 14.1416 21.104 14.243 21.1908 14.3416L21.4584 14.6306L21.4808 14.6541C21.7415 14.9407 21.9129 15.297 21.975 15.6795C22.0371 16.0621 21.9872 16.4549 21.8304 16.8094C21.6736 17.1637 21.4169 17.4651 21.0922 17.6765C20.7673 17.8879 20.3879 17.9999 20.0004 17.9998H4.00036C3.61314 17.9998 3.23412 17.8877 2.90954 17.6765C2.58479 17.4652 2.32806 17.1637 2.17126 16.8094C2.01448 16.4549 1.96367 16.062 2.02575 15.6795C2.08784 15.297 2.26011 14.9407 2.52087 14.6541L2.54236 14.6306C3.20781 13.9442 3.78422 13.3416 4.22497 12.409C4.66457 11.4786 5.00036 10.1444 5.00036 7.99978ZM20.0004 7.99978C20.0003 6.89528 19.1049 5.99978 18.0004 5.99978C16.896 5.99997 16.0004 6.8954 16.0004 7.99978C16.0004 9.10423 16.896 9.99959 18.0004 9.99978C19.1049 9.99978 20.0004 9.10435 20.0004 7.99978ZM22.0004 7.99978C22.0004 10.2089 20.2095 11.9998 18.0004 11.9998C15.7914 11.9996 14.0004 10.2088 14.0004 7.99978C14.0004 5.79083 15.7914 3.99997 18.0004 3.99978C20.2095 3.99978 22.0003 5.79071 22.0004 7.99978Z" fill="currentColor"/>
</svg>
