<svg width="24" height="24" viewBox="0 0 24 24" fill="none" xmlns="http://www.w3.org/2000/svg">
<path d="M12.8648 20.5C13.1409 20.0218 13.7528 19.8578 14.231 20.1338C14.7093 20.4099 14.8734 21.0217 14.5972 21.5C14.334 21.9558 13.9554 22.3344 13.4996 22.5977C13.0437 22.8609 12.526 22.9999 11.9996 23C11.473 23 10.9556 22.8609 10.4996 22.5977C10.0435 22.3344 9.66427 21.956 9.40096 21.5C9.12489 21.0217 9.28893 20.4099 9.76717 20.1338C10.2454 19.8577 10.8572 20.0218 11.1334 20.5C11.2211 20.652 11.3476 20.7785 11.4996 20.8662C11.6515 20.9538 11.8242 21 11.9996 21C12.175 20.9999 12.3477 20.9539 12.4996 20.8662C12.6514 20.7785 12.7771 20.6519 12.8648 20.5Z" fill="currentColor"/>
<path d="M16.9989 8C16.9989 6.67409 16.4725 5.40249 15.5351 4.46484C14.5974 3.52716 13.325 3 11.9989 3C10.6729 3.00007 9.40139 3.52722 8.46377 4.46484C7.52616 5.40251 6.99892 6.67398 6.99892 8C6.99892 10.3543 6.62992 11.9982 6.03213 13.2637C5.44166 14.5136 4.65812 15.3205 3.9999 16H19.9989C19.3393 15.3202 18.5569 14.5128 17.9667 13.2637C17.3687 11.998 16.9989 10.3541 16.9989 8ZM18.9989 8C18.9989 10.1447 19.3348 11.4789 19.7743 12.4092C20.1048 13.1086 20.512 13.6223 20.9755 14.125L21.4569 14.6309L21.4784 14.6543C21.7393 14.941 21.9114 15.2971 21.9735 15.6797C22.0356 16.0621 21.9856 16.4543 21.829 16.8086C21.6723 17.1629 21.4154 17.4644 21.0907 17.6758C20.8064 17.8608 20.4802 17.9708 20.1435 17.9951L19.9989 18H3.99892C3.6113 17.9997 3.23175 17.8866 2.90713 17.6748C2.58249 17.463 2.3262 17.1613 2.16982 16.8066C2.0135 16.452 1.96368 16.0593 2.02627 15.6768C2.08889 15.2944 2.26127 14.9386 2.52236 14.6523L2.54287 14.6299C3.20732 13.9439 3.78301 13.3417 4.22353 12.4092C4.63553 11.537 4.9565 10.3099 4.99502 8.39258L4.99892 8C4.99892 6.14348 5.73695 4.36256 7.0497 3.0498C8.36237 1.73734 10.1427 1.00007 11.9989 1C13.8554 1 15.6364 1.73713 16.9491 3.0498C18.2619 4.36256 18.9989 6.14349 18.9989 8Z" fill="currentColor"/>
</svg>
