<svg width="24" height="24" viewBox="0 0 24 24" fill="none" xmlns="http://www.w3.org/2000/svg">
<path d="M11 21V14.4141L9.70703 15.707C9.31651 16.0976 8.68349 16.0976 8.29297 15.707C7.90244 15.3165 7.90244 14.6835 8.29297 14.293L11.293 11.293L11.3691 11.2246C11.7619 10.9043 12.3409 10.9269 12.707 11.293L15.707 14.293C16.0976 14.6835 16.0976 15.3165 15.707 15.707C15.3165 16.0976 14.6835 16.0976 14.293 15.707L13 14.4141V21C13 21.5523 12.5523 22 12 22C11.4477 22 11 21.5523 11 21ZM3 4V7H21V4H3ZM23 7C23 8.10457 22.1046 9 21 9V19C21 19.7957 20.6837 20.5585 20.1211 21.1211C19.5585 21.6837 18.7957 22 18 22H16C15.4477 22 15 21.5523 15 21C15 20.4477 15.4477 20 16 20H18C18.2652 20 18.5195 19.8946 18.707 19.707C18.8946 19.5195 19 19.2652 19 19V9H5V19L5.00488 19.0986C5.02757 19.3276 5.12883 19.5429 5.29297 19.707C5.48051 19.8946 5.73478 20 6 20H8C8.55228 20 9 20.4477 9 21C9 21.5523 8.55228 22 8 22H6C5.20435 22 4.44151 21.6837 3.87891 21.1211C3.3163 20.5585 3 19.7957 3 19V9C1.89543 9 1 8.10457 1 7V4C1 2.89543 1.89543 2 3 2H21C22.1046 2 23 2.89543 23 4V7Z" fill="currentColor"/>
</svg>
