<svg width="24" height="24" viewBox="0 0 24 24" fill="none" xmlns="http://www.w3.org/2000/svg">
<path d="M6.00078 21C6.00078 19.8955 6.89621 19 8.00078 19C9.10535 19 10.0008 19.8955 10.0008 21C10.0008 22.1046 9.10535 23 8.00078 23C6.89621 23 6.00078 22.1046 6.00078 21Z" fill="currentColor"/>
<path d="M17.0008 21C17.0008 19.8955 17.8962 19 19.0008 19C20.1054 19 21.0008 19.8955 21.0008 21C21.0008 22.1046 20.1054 23 19.0008 23C17.8962 23 17.0008 22.1046 17.0008 21Z" fill="currentColor"/>
<path d="M4.05078 1.05005L4.13867 1.05396C4.57224 1.09195 4.93575 1.40886 5.02832 1.84106L5.92969 6.05005H22.0908C22.3941 6.05006 22.6813 6.18751 22.8711 6.42407C23.0609 6.66062 23.1331 6.9708 23.0674 7.26685L21.417 14.6965L21.416 14.6956C21.2691 15.362 20.9007 15.959 20.3691 16.387C19.8373 16.8151 19.1749 17.0489 18.4922 17.05H8.71094C8.02101 17.0603 7.34843 16.8326 6.80664 16.4045C6.25913 15.972 5.8798 15.3621 5.7334 14.6799L4.14941 7.28735C4.14432 7.26642 4.1395 7.24531 4.13574 7.22388L3.24219 3.05005H2.05078C1.4985 3.05005 1.05078 2.60233 1.05078 2.05005C1.05078 1.49776 1.4985 1.05005 2.05078 1.05005H4.05078ZM7.68848 14.26C7.73727 14.4874 7.86435 14.691 8.04688 14.8352C8.22933 14.9792 8.45607 15.0552 8.68848 15.05H18.4893C18.7166 15.0497 18.9371 14.9718 19.1143 14.8293C19.2915 14.6866 19.4149 14.4872 19.4639 14.2649L19.4648 14.2629L20.8438 8.05005H6.3584L7.68848 14.26Z" fill="currentColor"/>
</svg>
