<svg width="24" height="24" viewBox="0 0 24 24" fill="none" xmlns="http://www.w3.org/2000/svg">
<path d="M5.60533 3.0501C7.71468 1.54322 10.2888 0.829698 12.8729 1.03545C15.4572 1.24131 17.886 2.3532 19.7303 4.1751C21.5744 5.99688 22.7165 8.41117 22.954 10.9925C23.1914 13.5739 22.5091 16.1568 21.0282 18.2845C19.5471 20.4122 17.3616 21.9486 14.8583 22.6224C12.3743 23.2908 9.73569 23.0667 7.40025 21.9915C7.23734 21.9323 7.06221 21.9166 6.89146 21.9456L3.53697 22.9271C3.52916 22.9293 3.52139 22.9318 3.51353 22.9339C3.18432 23.0213 2.8378 23.0226 2.50767 22.9388C2.17766 22.8549 1.87435 22.6882 1.62681 22.4544C1.37921 22.2204 1.19507 21.9268 1.09263 21.6019C0.990239 21.2771 0.972348 20.9315 1.04087 20.5979L1.06919 20.4905L2.11216 17.2688C2.14779 17.0849 2.13264 16.8951 2.06529 16.72C0.962229 14.3982 0.705678 11.7632 1.34361 9.27178C1.98666 6.76056 3.49611 4.55704 5.60533 3.0501ZM12.7147 3.02861C10.6003 2.86019 8.49432 3.44413 6.76841 4.67705C5.04249 5.91001 3.80728 7.71309 3.28111 9.76787C2.78789 11.6941 2.9478 13.7255 3.72837 15.5462L3.89244 15.9075L3.92076 15.9739C4.14122 16.5302 4.19098 17.1395 4.06236 17.7239C4.05547 17.7552 4.04683 17.7862 4.03697 17.8167L3.0067 20.9974L6.38853 20.0091C6.4169 20.0008 6.44645 19.9943 6.47544 19.9886C6.95802 19.8929 7.45567 19.9165 7.92466 20.0579L8.12388 20.1263L8.19127 20.1546C10.1131 21.0521 12.2905 21.242 14.3387 20.6907C16.3869 20.1395 18.1748 18.8827 19.3866 17.1419C20.5983 15.4011 21.156 13.2882 20.9618 11.1761C20.7675 9.06406 19.8338 7.08855 18.3251 5.59795C16.8161 4.10734 14.829 3.19708 12.7147 3.02861Z" fill="currentColor"/>
<path d="M8.00932 11C8.5616 11 9.00932 11.4477 9.00932 12C9.00932 12.5523 8.5616 13 8.00932 13H7.99955C7.44727 13 6.99955 12.5523 6.99955 12C6.99955 11.4477 7.44727 11 7.99955 11H8.00932Z" fill="currentColor"/>
<path d="M12.0093 11C12.5616 11 13.0093 11.4477 13.0093 12C13.0093 12.5523 12.5616 13 12.0093 13H11.9995C11.4473 13 10.9995 12.5523 10.9995 12C10.9995 11.4477 11.4473 11 11.9995 11H12.0093Z" fill="currentColor"/>
<path d="M16.0093 11C16.5616 11 17.0093 11.4477 17.0093 12C17.0093 12.5523 16.5616 13 16.0093 13H15.9995C15.4473 13 14.9995 12.5523 14.9995 12C14.9995 11.4477 15.4473 11 15.9995 11H16.0093Z" fill="currentColor"/>
</svg>
