<svg width="24" height="24" viewBox="0 0 24 24" fill="none" xmlns="http://www.w3.org/2000/svg">
<path fill-rule="evenodd" clip-rule="evenodd" d="M12.8729 1.03545C10.2888 0.829698 7.71468 1.54322 5.60533 3.0501C3.49611 4.55704 1.98666 6.76056 1.34361 9.27178C0.705678 11.7632 0.962229 14.3982 2.06529 16.72C2.13264 16.8951 2.14779 17.0849 2.11216 17.2688L1.06919 20.4905L1.04087 20.5979C0.972348 20.9315 0.990239 21.2771 1.09263 21.6019C1.19507 21.9268 1.37921 22.2204 1.62681 22.4544C1.87435 22.6882 2.17766 22.8549 2.50767 22.9388C2.8378 23.0226 3.18432 23.0213 3.51353 22.9339C3.51882 22.9325 3.52407 22.9309 3.52931 22.9293L6.89146 21.9456C7.06221 21.9166 7.23734 21.9323 7.40025 21.9915C9.73569 23.0667 12.3743 23.2908 14.8583 22.6224C17.3616 21.9486 19.5471 20.4122 21.0282 18.2845C22.5091 16.1568 23.1914 13.5739 22.954 10.9925C22.7165 8.41117 21.5744 5.99688 19.7303 4.1751C17.886 2.3532 15.4572 1.24131 12.8729 1.03545ZM8.00932 11C8.5616 11 9.00932 11.4477 9.00932 12C9.00932 12.5523 8.5616 13 8.00932 13C7.45703 13 6.99955 12.5523 6.99955 12C6.99955 11.4477 7.45703 11 8.00932 11ZM12.0093 11C12.5616 11 13.0093 11.4477 13.0093 12C13.0093 12.5523 12.5616 13 12.0093 13C11.457 13 10.9995 12.5523 10.9995 12C10.9995 11.4477 11.457 11 12.0093 11ZM17.0093 12C17.0093 11.4477 16.5616 11 16.0093 11C15.457 11 14.9995 11.4477 14.9995 12C14.9995 12.5523 15.457 13 16.0093 13C16.5616 13 17.0093 12.5523 17.0093 12Z" fill="currentColor"/>
</svg>
