<svg width="24" height="24" viewBox="0 0 24 24" fill="none" xmlns="http://www.w3.org/2000/svg">
<path d="M6.8535 9.69138C7.38103 9.68814 7.93176 9.82592 8.45897 10.0371C9.51709 10.4609 10.6699 11.2558 11.707 12.2929C12.7442 13.3301 13.539 14.4829 13.9629 15.541C14.174 16.0682 14.3118 16.6189 14.3086 17.1465C14.3052 17.6801 14.1536 18.2604 13.707 18.707C13.5686 18.8454 13.4155 18.9519 13.2568 19.0381C13.1887 19.0838 13.1151 19.1236 13.0342 19.1523L2.33397 22.9424C1.97057 23.0711 1.56554 22.9796 1.29295 22.707C1.02037 22.4342 0.928536 22.0284 1.0576 21.665L4.7949 11.1396C4.88576 10.8366 5.04232 10.5436 5.29295 10.2929L5.46678 10.1386C5.88427 9.81057 6.38673 9.6943 6.8535 9.69138ZM22.0097 19C22.562 19 23.0097 19.4477 23.0097 20C23.0097 20.5523 22.562 21 22.0097 21H22C21.4477 21 21 20.5523 21 20C21 19.4477 21.4477 19 22 19H22.0097ZM3.64451 20.3564L9.33006 18.3418C8.64015 17.9135 7.94384 17.3579 7.29295 16.707C6.64381 16.0579 6.08897 15.3638 5.66112 14.6758L3.64451 20.3564ZM6.86619 11.6914C6.78688 11.6919 6.74024 11.7004 6.7158 11.708L6.6992 11.7539C6.69462 11.7804 6.69169 11.817 6.69139 11.8662C6.69026 12.0523 6.74225 12.3381 6.89354 12.7158C7.19474 13.4676 7.81426 14.4002 8.70701 15.2929C9.59977 16.1857 10.5323 16.8052 11.2842 17.1064C11.6618 17.2577 11.9476 17.3097 12.1338 17.3086C12.2192 17.308 12.2663 17.2969 12.289 17.289C12.2969 17.2663 12.3081 17.2192 12.3086 17.1338C12.3097 16.9476 12.2577 16.6618 12.1064 16.2842C11.8052 15.5323 11.1857 14.5998 10.293 13.707C9.40019 12.8142 8.46765 12.1947 7.7158 11.8935C7.33812 11.7422 7.05236 11.6903 6.86619 11.6914ZM18.2148 13.6064C18.4757 12.1236 19.997 11.2237 21.4111 11.6904L21.5478 11.7402L21.5537 11.7422L22.373 12.0722C22.8853 12.2784 23.1337 12.8607 22.9277 13.373C22.7216 13.8853 22.1392 14.1337 21.6269 13.9277L20.8096 13.5986C20.5415 13.4947 20.2352 13.665 20.1846 13.9531L20.1836 13.9521C19.9896 15.132 18.9639 16 17.7695 16H17C16.4477 16 16 15.5523 16 15C16 14.4477 16.4477 14 17 14H17.7695C17.9893 14 18.1786 13.8363 18.2119 13.625L18.2148 13.6064ZM21.6826 1.05173C22.2063 0.876448 22.7729 1.15891 22.9482 1.68259C23.1235 2.20627 22.841 2.77287 22.3174 2.94821L20.0771 3.69821L20.0762 3.69919C19.6585 3.83831 19.3016 4.11747 19.0674 4.49021C18.8624 4.81648 18.7626 5.19663 18.7783 5.57907L18.793 5.75485C18.9609 7.20081 17.8355 8.49997 16.3496 8.49997H15.9697C15.5781 8.5001 15.2604 8.77036 15.1924 9.12692L15.1914 9.13474L14.9805 10.1943C14.8731 10.736 14.3474 11.0878 13.8056 10.9804C13.2639 10.8731 12.9122 10.3474 13.0195 9.80563L13.2275 8.7529L13.2851 8.50974C13.6252 7.31719 14.7245 6.50009 15.9697 6.49997H16.3496C16.6236 6.49997 16.8385 6.25923 16.8066 5.98532V5.98435C16.6952 5.092 16.8955 4.18843 17.374 3.42673C17.8548 2.66141 18.5868 2.08638 19.4443 1.80075V1.80173L21.6826 1.05173ZM22.0097 6.99997C22.562 6.99997 23.0097 7.44769 23.0097 7.99997C23.0097 8.55226 22.562 8.99997 22.0097 8.99997H22C21.4477 8.99997 21 8.55226 21 7.99997C21 7.44769 21.4477 6.99997 22 6.99997H22.0097ZM7.99998 6.99997V6.23044C7.99998 5.05216 8.85234 4.00225 10.0469 3.8154L10.1494 3.78415C10.3723 3.68821 10.4911 3.42695 10.4023 3.19333L10.0722 2.37302C9.86625 1.86073 10.1147 1.27839 10.6269 1.07224C11.1392 0.866239 11.7216 1.11466 11.9277 1.62692L12.2578 2.44626L12.2597 2.45212C12.8335 3.90331 11.9242 5.51579 10.3935 5.78513C10.383 5.78698 10.3719 5.78849 10.3613 5.79001C10.1725 5.81704 9.99998 5.9992 9.99998 6.23044V6.99997C9.99998 7.55226 9.55227 7.99997 8.99998 7.99997C8.4477 7.99997 7.99998 7.55226 7.99998 6.99997ZM4.00975 1.99997C4.56203 1.99997 5.00975 2.44769 5.00975 2.99997C5.00975 3.55226 4.56203 3.99997 4.00975 3.99997H3.99998C3.4477 3.99997 2.99998 3.55226 2.99998 2.99997C2.99998 2.44769 3.4477 1.99997 3.99998 1.99997H4.00975ZM15.0097 0.999971C15.562 0.999971 16.0097 1.44769 16.0097 1.99997C16.0097 2.55226 15.562 2.99997 15.0097 2.99997H15C14.4477 2.99997 14 2.55226 14 1.99997C14 1.44769 14.4477 0.999971 15 0.999971H15.0097Z" fill="currentColor"/>
</svg>
