<svg width="21" height="17" viewBox="0 0 21 17" fill="none" xmlns="http://www.w3.org/2000/svg">
<path d="M20.2492 15.0531L20.25 12.1524C20.2424 11.7357 20.102 11.3323 19.8493 11.0009C19.5966 10.6696 19.2447 10.4275 18.8449 10.3101C18.458 10.1864 18.1204 9.94288 17.8809 9.61473C17.6413 9.28658 17.5123 8.89078 17.5124 8.48448C17.5125 8.07819 17.6417 7.68244 17.8813 7.35439C18.121 7.02634 18.4587 6.78298 18.8457 6.65945C19.2452 6.54139 19.5967 6.29908 19.8492 5.96766C20.1018 5.63625 20.2421 5.23297 20.25 4.81636L20.2492 1.91571C20.2483 1.40792 20.0462 0.921188 19.6873 0.562127C19.3283 0.203065 18.8416 0.000950283 18.334 5.40777e-05L1.91603 0C1.40819 0.000381728 0.921257 0.202332 0.56216 0.561504C0.203063 0.920677 0.00115615 1.40771 0.000774505 1.91566L0 4.8163C0.00755718 5.23301 0.14792 5.63643 0.400647 5.9678C0.653374 6.29918 1.00527 6.5412 1.40508 6.65863C1.79201 6.78232 2.12961 7.02583 2.36913 7.35398C2.60865 7.68213 2.73768 8.07793 2.7376 8.48423C2.73751 8.89052 2.60831 9.28627 2.36865 9.61432C2.129 9.94237 1.79129 10.1857 1.40431 10.3093C1.00478 10.4273 0.653257 10.6696 0.40074 11.001C0.148224 11.3325 0.00785696 11.7357 8.67276e-06 12.1523L0.00078184 15.053C0.0013342 15.5609 0.203297 16.0478 0.562357 16.407C0.921417 16.7661 1.40825 16.9681 1.91603 16.9686L18.334 16.9688C18.8418 16.9684 19.3287 16.7664 19.6878 16.4072C20.0469 16.0481 20.2488 15.561 20.2492 15.0531ZM7.70925 6.52161C7.55618 6.36851 7.45193 6.17343 7.4097 5.96107C7.36746 5.7487 7.38914 5.52858 7.47198 5.32854C7.55483 5.12849 7.69512 4.95751 7.87511 4.83721C8.05511 4.71692 8.26673 4.65271 8.48321 4.65271C8.69969 4.65271 8.91131 4.71692 9.09131 4.83721C9.27131 4.95751 9.4116 5.12849 9.49444 5.32854C9.57728 5.52858 9.59896 5.7487 9.55673 5.96107C9.51449 6.17344 9.41025 6.36851 9.25717 6.52161C9.0519 6.72691 8.7735 6.84224 8.48321 6.84224C8.19292 6.84224 7.91453 6.72691 7.70925 6.52161ZM8.38359 11.3873C8.22964 11.5413 8.02083 11.6278 7.80312 11.6278C7.5854 11.6278 7.3766 11.5413 7.22265 11.3873C7.0687 11.2334 6.98221 11.0245 6.98221 10.8067C6.98221 10.589 7.0687 10.3801 7.22265 10.2262L11.8664 5.58141C12.0204 5.42742 12.2292 5.34092 12.4469 5.34092C12.6646 5.34092 12.8734 5.42742 13.0274 5.58141C13.1813 5.73539 13.2678 5.94424 13.2678 6.162C13.2678 6.37977 13.1813 6.58861 13.0274 6.74259L8.38359 11.3873ZM10.9928 11.9954C10.8398 11.8423 10.7355 11.6472 10.6933 11.4348C10.651 11.2225 10.6727 11.0024 10.7556 10.8023C10.8384 10.6023 10.9787 10.4313 11.1587 10.311C11.3387 10.1907 11.5503 10.1265 11.7668 10.1265C11.9833 10.1265 12.1949 10.1907 12.3749 10.311C12.5549 10.4313 12.6952 10.6023 12.778 10.8023C12.8609 11.0024 12.8825 11.2225 12.8403 11.4348C12.7981 11.6472 12.6938 11.8423 12.5407 11.9954C12.3355 12.2007 12.0571 12.316 11.7668 12.316C11.4765 12.316 11.1981 12.2007 10.9928 11.9954Z" fill="currentColor"/>
<defs>
<linearGradient id="paint0_linear_5871_7793" x1="10.125" y1="0" x2="10.125" y2="16.9688" gradientUnits="userSpaceOnUse">
<stop stop-color="white"/>
<stop offset="1" stop-color="currentColor"/>
</linearGradient>
</defs>
</svg>
