<svg width="22" height="16" viewBox="0 0 22 16" fill="none" xmlns="http://www.w3.org/2000/svg">
<path d="M20 3C20 2.73478 19.8946 2.48051 19.707 2.29297C19.5429 2.12883 19.3276 2.02757 19.0986 2.00488L19 2H3C2.73478 2 2.4805 2.10543 2.29297 2.29297C2.10543 2.4805 2 2.73478 2 3V4.12793C2.68594 4.3051 3.31864 4.66239 3.82812 5.17188C4.57827 5.92202 5 6.93913 5 8C5 9.06087 4.57827 10.078 3.82812 10.8281C3.3187 11.3376 2.68585 11.6939 2 11.8711V13C2 13.2652 2.10543 13.5195 2.29297 13.707C2.48051 13.8946 2.73478 14 3 14H19C19.2652 14 19.5195 13.8946 19.707 13.707C19.8946 13.5195 20 13.2652 20 13V11.8711C19.3141 11.6939 18.6813 11.3376 18.1719 10.8281C17.4217 10.078 17 9.06087 17 8C17 6.93913 17.4217 5.92202 18.1719 5.17188C18.6814 4.66239 19.3141 4.3051 20 4.12793V3ZM22 5C22 5.55228 21.5523 6 21 6C20.4696 6 19.961 6.21087 19.5859 6.58594C19.2109 6.96101 19 7.46957 19 8L19.0098 8.19727C19.0551 8.65526 19.2577 9.08578 19.5859 9.41406C19.961 9.78913 20.4696 10 21 10C21.5523 10 22 10.4477 22 11V13C22 13.7957 21.6837 14.5585 21.1211 15.1211C20.5585 15.6837 19.7957 16 19 16H3C2.20435 16 1.44151 15.6837 0.878906 15.1211C0.316297 14.5585 0 13.7956 0 13V11C0 10.4477 0.447715 10 1 10C1.53043 10 2.03899 9.78913 2.41406 9.41406C2.78913 9.03899 3 8.53043 3 8C3 7.46957 2.78913 6.96101 2.41406 6.58594C2.03899 6.21087 1.53043 6 1 6C0.447715 6 0 5.55228 0 5V3C0 2.20435 0.316297 1.44152 0.878906 0.878906C1.44152 0.316297 2.20435 0 3 0H19C19.7957 0 20.5585 0.316297 21.1211 0.878906C21.6837 1.44151 22 2.20435 22 3V5Z" fill="currentColor" fill-opacity="0.88"/>
<path d="M8.00977 4C8.56205 4 9.00977 4.44772 9.00977 5C9.00977 5.55228 8.56205 6 8.00977 6H8C7.44772 6 7 5.55228 7 5C7 4.44772 7.44772 4 8 4H8.00977Z" fill="currentColor" fill-opacity="0.88"/>
<path d="M13.293 4.29297C13.6835 3.90244 14.3165 3.90244 14.707 4.29297C15.0976 4.68349 15.0976 5.31651 14.707 5.70703L8.70703 11.707C8.31651 12.0976 7.68349 12.0976 7.29297 11.707C6.90244 11.3165 6.90244 10.6835 7.29297 10.293L13.293 4.29297Z" fill="currentColor" fill-opacity="0.88"/>
<path d="M14.0098 10C14.5621 10 15.0098 10.4477 15.0098 11C15.0098 11.5523 14.5621 12 14.0098 12H14C13.4477 12 13 11.5523 13 11C13 10.4477 13.4477 10 14 10H14.0098Z" fill="currentColor" fill-opacity="0.88"/>
</svg>
