<svg width="24" height="24" viewBox="0 0 24 24" fill="none" xmlns="http://www.w3.org/2000/svg">
<path d="M14.9756 3.18414C16.2564 2.87268 17.602 2.95764 18.833 3.42906C20.0639 3.90049 21.1218 4.73556 21.8662 5.82263C22.6098 6.90867 23.0053 8.19523 22.9999 9.51104L22.9951 9.76572C22.8876 12.3766 21.1466 14.2746 19.707 15.713C19.7032 15.7169 19.6992 15.721 19.6953 15.7248L14.2177 21.0183C13.9462 21.3166 13.6181 21.5583 13.2509 21.7267C12.8642 21.9041 12.4441 21.9972 12.0185 21.9999C11.5929 22.0026 11.1712 21.9149 10.7822 21.7423C10.4065 21.5757 10.07 21.3331 9.79197 21.031L4.30468 15.7238C4.30087 15.7201 4.29671 15.7168 4.29296 15.713C2.85424 14.2755 1.11242 12.3865 1.00488 9.76669L1 9.51104C1.00002 8.19698 1.39935 6.91319 2.14453 5.83043C2.88969 4.74784 3.94594 3.91687 5.17382 3.44662C6.40183 2.97633 7.74389 2.88909 9.02244 3.19683C10.1436 3.46673 11.1697 4.029 11.998 4.82246C12.8248 4.02358 13.8524 3.4573 14.9756 3.18414ZM3.01367 9.85159C3.15025 11.5328 4.28705 12.8803 5.70702 14.2992H5.70604L11.2031 19.6161L11.2539 19.6678C11.3483 19.7735 11.4641 19.8582 11.5937 19.9157C11.7234 19.9732 11.864 20.0024 12.0058 20.0016C12.1477 20.0007 12.288 19.97 12.417 19.9108C12.5458 19.8517 12.6608 19.7659 12.7539 19.6591L12.8125 19.5966L18.2929 14.2992L18.8437 13.7352C20.0863 12.4205 20.9998 11.1151 21 9.51104V9.50616C21.0043 8.59491 20.7307 7.70372 20.2158 6.95159C19.7008 6.19951 18.9687 5.6219 18.1171 5.29571C17.2655 4.96956 16.3344 4.90946 15.4482 5.12495C14.562 5.34048 13.7626 5.82105 13.1562 6.50176C13.1508 6.5079 13.1452 6.5143 13.1396 6.5203C12.9937 6.67619 12.817 6.80026 12.6211 6.88524C12.4739 6.94904 12.3181 6.98995 12.1592 7.00624L12 7.01404C11.7863 7.01404 11.5749 6.97022 11.3789 6.88524C11.1829 6.80026 11.0062 6.67619 10.8603 6.5203C10.8559 6.51559 10.852 6.51046 10.8476 6.50567C10.2391 5.82899 9.43884 5.35263 8.55369 5.13959C7.66859 4.92657 6.73976 4.98675 5.88964 5.3123C5.03947 5.63788 4.30788 6.2137 3.79199 6.9633C3.27622 7.71284 3.00001 8.60143 2.99999 9.51104L3.01367 9.85159Z" fill="currentColor"/>
</svg>
