<svg width="24" height="24" viewBox="0 0 24 24" fill="none" xmlns="http://www.w3.org/2000/svg">
<path d="M21 12C21 7.02944 16.9706 3 12 3C7.02944 3 3 7.02944 3 12C3 16.9706 7.02944 21 12 21C16.9706 21 21 16.9706 21 12ZM14 10C14 9.44772 13.5523 9 13 9H11V11H13C13.5523 11 14 10.5523 14 10ZM23 12C23 18.0751 18.0751 23 12 23C5.92487 23 1 18.0751 1 12C1 5.92487 5.92487 1 12 1C18.0751 1 23 5.92487 23 12ZM16 10C16 11.6569 14.6569 13 13 13H11V16C11 16.5523 10.5523 17 10 17C9.44772 17 9 16.5523 9 16V8C9 7.44772 9.44771 7 10 7H13C14.6569 7 16 8.34315 16 10Z" fill="currentColor"/>
</svg>
