<svg width="24" height="24" viewBox="0 0 24 24" fill="none" xmlns="http://www.w3.org/2000/svg">
<path d="M15.953 15.953C16.3435 15.5624 16.9765 15.5624 17.367 15.953L21.7069 20.2928C22.0974 20.6833 22.0974 21.3164 21.7069 21.7069C21.3164 22.0974 20.6833 22.0974 20.2928 21.7069L15.953 17.367C15.5624 16.9765 15.5624 16.3435 15.953 15.953Z" fill="currentColor"/>
<path d="M18 11C18 7.13401 14.866 4 11 4C7.13401 4 4 7.13401 4 11C4 14.866 7.13401 18 11 18C14.866 18 18 14.866 18 11ZM20 11C20 15.9706 15.9706 20 11 20C6.02944 20 2 15.9706 2 11C2 6.02944 6.02944 2 11 2C15.9706 2 20 6.02944 20 11Z" fill="currentColor"/>
</svg>
