<svg width="24" height="24" viewBox="0 0 24 24" fill="none" xmlns="http://www.w3.org/2000/svg">
<path d="M20 7.03418H4V20C4 20.2652 4.10543 20.5195 4.29297 20.707C4.48051 20.8946 4.73478 21 5 21H19C19.2652 21 19.5195 20.8946 19.707 20.707C19.8946 20.5195 20 20.2652 20 20V7.03418ZM7 10C7 9.44771 7.44772 9 8 9C8.55228 9 9 9.44771 9 10C9 10.7956 9.3163 11.5585 9.87891 12.1211C10.4415 12.6837 11.2044 13 12 13L12.2969 12.9854C12.9835 12.9171 13.6289 12.6133 14.1211 12.1211C14.6837 11.5585 15 10.7956 15 10C15 9.44771 15.4477 9 16 9C16.5523 9 17 9.44771 17 10C17 11.3261 16.4728 12.5975 15.5352 13.5352C14.6561 14.4142 13.4838 14.9328 12.248 14.9941L12 15C10.6739 15 9.40253 14.4728 8.46484 13.5352C7.52716 12.5975 7 11.3261 7 10ZM6.88379 3.00684C6.76885 3.02028 6.65676 3.05345 6.55273 3.10547C6.41388 3.1749 6.29334 3.27619 6.2002 3.40039L4.97461 5.03418H19.0254L17.7998 3.40039C17.7067 3.2762 17.5861 3.1749 17.4473 3.10547C17.3084 3.03604 17.1552 3 17 3H7L6.88379 3.00684ZM22 20C22 20.7957 21.6837 21.5585 21.1211 22.1211C20.5585 22.6837 19.7957 23 19 23H5C4.20435 23 3.44151 22.6837 2.87891 22.1211C2.3163 21.5585 2 20.7957 2 20V6.66699C2 6.35799 2.04959 6.05354 2.1416 5.7627C2.1451 5.75026 2.14838 5.73782 2.15234 5.72559C2.1569 5.7118 2.16223 5.69829 2.16699 5.68457C2.17274 5.66918 2.17809 5.6537 2.18457 5.63867C2.2847 5.36453 2.42227 5.1037 2.59961 4.86719L4.59961 2.2002C4.87905 1.82761 5.24164 1.52469 5.6582 1.31641C6.07477 1.10812 6.53426 1 7 1H17L17.1738 1.00488C17.5796 1.02843 17.9772 1.13409 18.3418 1.31641C18.7584 1.52469 19.1209 1.82761 19.4004 2.2002L21.4004 4.86719C21.5777 5.1037 21.7153 5.36453 21.8154 5.63867C21.8219 5.6537 21.8273 5.66918 21.833 5.68457C21.8378 5.69829 21.8431 5.7118 21.8477 5.72559C21.8516 5.73782 21.8549 5.75026 21.8584 5.7627C21.9504 6.05354 22 6.35799 22 6.66699V20Z" fill="currentColor"/>
</svg>
