<svg width="24" height="24" viewBox="0 0 24 24" fill="none" xmlns="http://www.w3.org/2000/svg">
<path d="M9.69935 7.7396C8.33109 7.7396 7.06311 8.1802 6.02197 8.9306V3.4036H3V20.5696H6.02197V19.7172C7.06311 20.4674 8.33109 20.9082 9.69935 20.9082C13.2397 20.9082 16.1095 17.9604 16.1095 14.324C16.1095 10.6876 13.2395 7.7396 9.69935 7.7396ZM9.41156 18.0324C7.48136 18.0324 5.91663 16.3708 5.91663 14.3212C5.91663 12.2716 7.48136 10.61 9.41156 10.61C11.3418 10.61 12.9065 12.2716 12.9065 14.3212C12.9065 16.3708 11.3418 18.0324 9.41156 18.0324ZM19.7912 2H21V22H19.7912V2Z" fill="currentColor"/>
</svg>
