<svg width="24" height="24" viewBox="0 0 24 24" fill="none" xmlns="http://www.w3.org/2000/svg">
<path d="M12.0001 8.66679C10.1983 8.66679 8.66679 10.1983 8.66679 12.0001C8.66679 13.8019 10.1983 15.3335 12.0001 15.3335C13.8019 15.3335 15.3335 13.8019 15.3335 12.0001C15.3335 10.1983 13.8019 8.66679 12.0001 8.66679Z" fill="currentColor"/>
<path d="M16.2727 2H7.81818C4.54545 2 2 4.54545 2 7.72727V16.1818C2 19.4545 4.54545 22 7.81818 22H16.2727C19.4545 22 22 19.4545 22 16.1818V7.72727C22 4.54545 19.4545 2 16.2727 2ZM12 17.2727C9.09091 17.2727 6.81818 14.9091 6.81818 12.0909C6.81818 9.27273 9.09091 6.81818 12 6.81818C14.9091 6.81818 17.1818 9.18182 17.1818 12C17.1818 14.8182 14.9091 17.2727 12 17.2727ZM17.3636 7.90909C16.7273 7.90909 16.1818 7.36364 16.1818 6.72727C16.1818 6.09091 16.7273 5.54545 17.3636 5.54545C18 5.54545 18.5455 6.09091 18.5455 6.72727C18.5455 7.36364 18 7.90909 17.3636 7.90909Z" fill="currentColor"/>
</svg>
