<svg width="24" height="24" viewBox="0 0 24 24" fill="none" xmlns="http://www.w3.org/2000/svg">
<path d="M12.0037 4C12.0453 4 18.8852 4.00149 20.6004 4.48068C21.5473 4.74108 22.2926 5.51478 22.545 6.50021C23.003 8.28326 23 12.0022 23 12.0022C23 12.0282 22.9981 15.7262 22.5418 17.5031C22.2895 18.4847 21.5442 19.2581 20.5972 19.5226C18.8816 19.9994 11.9995 20 11.9995 20C11.9579 20 5.11383 19.9979 3.40277 19.5226C2.4557 19.2622 1.71047 18.4888 1.45818 17.5031C1.00184 15.7262 1.00001 12.0282 1 12.0022C1 12.0022 0.999558 8.28408 1.46137 6.49691C1.71365 5.5153 2.45899 4.74189 3.40597 4.47738C5.12157 4.00057 12.0037 4 12.0037 4ZM9.75226 15.3802L15.5051 12.0022L9.75226 8.62423V15.3802Z" fill="currentColor"/>
</svg>
