<svg width="24" height="24" viewBox="0 0 24 24" fill="none" xmlns="http://www.w3.org/2000/svg">
<path d="M12.2119 1.01465C12.4222 1.04409 12.6248 1.1176 12.8066 1.23047C12.9884 1.34335 13.1439 1.49245 13.2636 1.66797L13.371 1.85156L15.6816 6.53125C15.762 6.69388 15.8806 6.83464 16.0273 6.94141C16.1742 7.04828 16.3456 7.11814 16.5253 7.14453L21.6904 7.90039C21.9022 7.93112 22.1032 8.00614 22.2832 8.11914L22.456 8.24414L22.6083 8.39258C22.7031 8.49819 22.7825 8.61658 22.8447 8.74414L22.9248 8.94141L22.9765 9.14844C23.0134 9.35762 23.0063 9.57349 22.955 9.78125C22.8866 10.0582 22.7423 10.3106 22.538 10.5098L22.5371 10.5107L18.8017 14.1484C18.6716 14.2753 18.5738 14.4317 18.5175 14.6045C18.4613 14.7773 18.448 14.9615 18.4785 15.1406L19.3593 20.2764L19.3818 20.4893C19.3892 20.7025 19.352 20.9159 19.2714 21.1152C19.164 21.3811 18.9839 21.6118 18.7519 21.7803C18.5199 21.9487 18.245 22.0485 17.9589 22.0684C17.6729 22.0882 17.3869 22.0273 17.1337 21.8926L12.5205 19.4668C12.3597 19.3825 12.1805 19.3389 11.999 19.3389C11.8177 19.3389 11.639 19.3826 11.4785 19.4668L6.86225 21.8926L6.86323 21.8936C6.61022 22.0274 6.32454 22.0877 6.03901 22.0674C5.75361 22.047 5.47943 21.9475 5.248 21.7793C5.0165 21.6109 4.83678 21.3806 4.72944 21.1152C4.6489 20.916 4.61181 20.7025 4.61909 20.4893L4.64057 20.2773L5.52143 15.1416C5.55213 14.9624 5.53855 14.7784 5.48237 14.6055C5.44019 14.4757 5.37498 14.3547 5.28999 14.249L5.19819 14.1484L1.46186 10.5117L1.46284 10.5107C1.25828 10.3121 1.11297 10.0609 1.04389 9.78418C0.974532 9.50616 0.983795 9.21396 1.07221 8.94141L1.15229 8.74316C1.24581 8.55129 1.37926 8.3805 1.54389 8.24219C1.76322 8.05794 2.02981 7.9386 2.31342 7.89844L7.47456 7.14453L7.60737 7.11621C7.73834 7.08062 7.86219 7.0216 7.9726 6.94141C8.11958 6.83462 8.23878 6.69411 8.31928 6.53125L10.6279 1.85254L10.6289 1.85156C10.7553 1.59614 10.9503 1.38088 11.1923 1.23047C11.4346 1.08005 11.7148 1 11.9999 1L12.2119 1.01465Z" fill="currentColor"/>
</svg>
