<svg width="24" height="24" viewBox="0 0 24 24" fill="none" xmlns="http://www.w3.org/2000/svg">
<path d="M1.5 20.5L2.5 15.5H21.5L22.5 19.5V21.5L20.5 22.5H3L1.5 20.5Z" fill="#FDE272"/>
<path d="M4 9.5L2.5 15H21.5L20 9.5L18.5 8.5H5.5L4 9.5Z" fill="white"/>
<path d="M18.2545 8C18.8591 8.00017 19.4456 8.21038 19.9173 8.59634C20.3889 8.98243 20.7176 9.52131 20.849 10.1236L22.9343 19.6983C23.0207 20.0948 23.0195 20.5068 22.9292 20.9024C22.839 21.298 22.662 21.6681 22.413 21.985C22.164 22.3017 21.8482 22.5573 21.4894 22.733C21.1306 22.9087 20.7378 22.9999 20.3398 23H3.65679C3.25865 22.9999 2.86509 22.9088 2.50616 22.733C2.14736 22.5573 1.83164 22.3017 1.58261 21.985C1.33359 21.6682 1.15762 21.2979 1.06737 20.9024C0.977148 20.5068 0.974866 20.0948 1.06126 19.6983L3.14664 10.1236C3.27795 9.52129 3.60665 8.98244 4.07834 8.59634C4.55011 8.21023 5.13737 8.00011 5.74217 8H18.2545ZM5.74217 9.16983C5.39824 9.16989 5.06448 9.28997 4.79621 9.50956C4.52794 9.72915 4.34135 10.0355 4.26672 10.3781L2.18134 19.9528C2.13227 20.1781 2.1332 20.4116 2.18439 20.6364C2.2357 20.8614 2.33601 21.0723 2.47765 21.2525C2.61921 21.4326 2.79813 21.5786 3.00205 21.6785C3.20615 21.7784 3.4304 21.8301 3.65679 21.8302H20.3398C20.5661 21.8301 20.7896 21.7784 20.9936 21.6785C21.1976 21.5785 21.3773 21.4327 21.519 21.2525C21.6605 21.0724 21.7599 20.8614 21.8112 20.6364C21.8624 20.4117 21.8643 20.1781 21.8153 19.9528L19.7299 10.3781C19.6553 10.0355 19.4677 9.72915 19.1994 9.50956C18.9313 9.29016 18.5981 9.17 18.2545 9.16983H5.74217Z" fill="#542C0D"/>
<path d="M15.7896 12.4012V6.95542C15.7896 5.95885 15.3899 5.00317 14.6789 4.29849C14.0123 3.63781 13.123 3.24899 12.1859 3.20296L11.998 3.19764C10.9925 3.19764 10.0282 3.59381 9.31721 4.29849C8.60619 5.00317 8.20646 5.95885 8.20646 6.95542V12.4012C8.20646 12.732 7.93607 13 7.60225 13C7.26844 13 6.99805 12.732 6.99805 12.4012V6.95542C6.99805 5.64111 7.52416 4.38015 8.46188 3.45078C9.3996 2.52142 10.6719 2 11.998 2L12.246 2.00638C13.4818 2.06714 14.6551 2.5795 15.5342 3.45078C16.4719 4.38015 16.998 5.64111 16.998 6.95542V12.4012C16.998 12.732 16.7277 13 16.3938 13C16.06 13 15.7896 12.732 15.7896 12.4012Z" fill="#542C0D"/>
<path d="M20.9992 14.9004V16H2.9992V14.9004H20.9992Z" fill="#542C0D"/>
</svg>
