<svg width="24" height="24" viewBox="0 0 24 24" fill="none" xmlns="http://www.w3.org/2000/svg">
<circle cx="12" cy="12" r="9" fill="#FDE272"/>
<path d="M21.5 12.9999C13.5 10.9999 7.83333 15.8333 6 18.4999C6.4 19.7 8.5 20.6666 9.5 20.9999C17.9 22.9999 21 16.4999 21.5 12.9999Z" fill="white"/>
<path d="M10.5 2.50005C4.5 3.70005 2.66667 8.66671 2.5 11C11.3 11.0001 17.1667 7.3334 19 5.50005C16.6 2.30005 12.3333 2.16671 10.5 2.50005Z" fill="white"/>
<path d="M20.9577 12C20.9577 9.76707 20.1384 7.72674 18.787 6.1581C17.2116 7.69369 15.4269 8.79543 13.3691 9.59326C13.5342 9.92409 13.6942 10.2578 13.8486 10.5967C14.0942 11.136 14.3253 11.6879 14.5484 12.2592C16.543 11.8055 18.6805 11.7753 20.9521 12.2083C20.9537 12.139 20.9577 12.0696 20.9577 12ZM13.9041 13.5088C11.0316 14.3742 8.48792 16.214 6.29233 18.9027C7.84223 20.1857 9.83077 20.9577 12 20.9577C13.361 20.9577 14.6502 20.6519 15.8054 20.1089C15.1671 17.4637 14.5705 15.3566 13.9041 13.5088ZM20.8679 13.2534C18.7582 12.8372 16.7737 12.8459 14.9177 13.2469C15.5655 15.0572 16.1434 17.0955 16.7515 19.5914C18.9412 18.218 20.4936 15.9257 20.8679 13.2534ZM8.47783 3.76155C5.74159 4.93289 3.70914 7.42795 3.18023 10.4412C6.6011 10.202 9.45598 9.78812 11.8871 9.01194C10.98 7.35587 9.88615 5.70552 8.47783 3.76155ZM12 3.0423C11.1324 3.0423 10.2941 3.16764 9.50069 3.39776C10.8806 5.31467 11.9713 6.97489 12.8849 8.66389C14.8811 7.90451 16.5764 6.85833 18.0631 5.40831C16.4678 3.94011 14.3391 3.0423 12 3.0423ZM3.0423 12C3.0423 14.402 3.98965 16.5814 5.52865 18.1899C7.8192 15.4022 10.5 13.4611 13.5348 12.5295C13.3314 12.0139 13.1215 11.5157 12.8997 11.029C12.7333 10.6636 12.5586 10.3047 12.3786 9.94779C9.73889 10.8155 6.67135 11.2523 3.05711 11.4964C3.04788 11.6631 3.0423 11.831 3.0423 12ZM22 12C22 17.523 17.523 22 12 22C6.47705 22 2 17.523 2 12C2 6.47705 6.47705 2 12 2C17.523 2 22 6.47705 22 12Z" fill="#542C0D"/>
</svg>
