<svg width="24" height="24" viewBox="0 0 24 24" fill="none" xmlns="http://www.w3.org/2000/svg">
<path d="M22 18H2V10H22V18Z" fill="#FDE272"/>
<rect x="4" y="4" width="16" height="5" fill="white"/>
<path d="M21.8535 20.4056V11.7566C21.8535 11.3409 21.6941 10.9421 21.4105 10.6481C21.127 10.3541 20.7424 10.1888 20.3414 10.1888H3.65861C3.25764 10.1888 2.873 10.3541 2.58947 10.6481C2.30593 10.9421 2.14653 11.3409 2.14653 11.7566V20.4056C2.14653 20.734 1.88999 21 1.57327 21C1.25655 21 1 20.734 1 20.4056V11.7566C1 11.0255 1.28033 10.3247 1.77895 9.80767C2.27758 9.29066 2.95345 9 3.65861 9H20.3414C21.0465 9 21.7224 9.29066 22.2211 9.80767C22.7197 10.3247 23 11.0255 23 11.7566V20.4056C23 20.734 22.7435 21 22.4267 21C22.11 21 21.8535 20.734 21.8535 20.4056Z" fill="#542C0D"/>
<path d="M19.8425 9.45791V5.51403C19.8425 5.13486 19.6816 4.77114 19.3953 4.50303C19.1449 4.26847 18.8164 4.12345 18.467 4.09092L18.3159 4.08418H5.68407C5.27925 4.08418 4.89093 4.23491 4.60468 4.50303C4.31844 4.77114 4.15751 5.13486 4.15751 5.51403V9.45791C4.15751 9.7574 3.89851 10 3.57875 10C3.259 10 3 9.7574 3 9.45791V5.51403C3 4.84722 3.28301 4.2081 3.78641 3.73659C4.28981 3.26508 4.97215 3 5.68407 3H18.3159C19.0278 3 19.7102 3.26508 20.2136 3.73659C20.717 4.2081 21 4.84722 21 5.51403V9.45791C21 9.7574 20.741 10 20.4212 10C20.1015 10 19.8425 9.7574 19.8425 9.45791Z" fill="#542C0D"/>
<path d="M11.501 9.45791V3.54209C11.501 3.2426 11.7247 3 12.001 3C12.2772 3 12.501 3.2426 12.501 3.54209V9.45791C12.501 9.7574 12.2772 10 12.001 10C11.7247 10 11.501 9.7574 11.501 9.45791Z" fill="#542C0D"/>
<path d="M22.4267 18C22.7435 18 23 18.2238 23 18.5C23 18.7762 22.7435 19 22.4267 19H1.57327C1.25655 19 1 18.7762 1 18.5C1 18.2238 1.25655 18 1.57327 18H22.4267Z" fill="#542C0D"/>
</svg>
