<svg width="24" height="24" viewBox="0 0 24 24" fill="none" xmlns="http://www.w3.org/2000/svg">
<rect x="14" y="3" width="7" height="7" fill="#FDE272"/>
<path d="M9.5 6.5H4L2.5 8V20L4 21.5H16.5L17.5 20V14.5L16.5 14H10V7.5L9.5 6.5Z" fill="white"/>
<path d="M16.8844 14.9303C16.8844 14.8316 16.8452 14.7366 16.7754 14.6668C16.7056 14.597 16.6106 14.5578 16.5119 14.5578H10.5578V20.8844H15.5816C15.9271 20.8844 16.2586 20.7471 16.5028 20.5028C16.7471 20.2586 16.8844 19.9271 16.8844 19.5816V14.9303ZM3.1156 19.5816C3.1156 19.9271 3.25292 20.2586 3.49716 20.5028C3.74141 20.7471 4.07294 20.8844 4.41835 20.8844H9.4422V14.5578H3.1156V19.5816ZM9.4422 7.48808C9.4422 7.38939 9.40297 7.2944 9.33318 7.22462C9.2634 7.15483 9.16841 7.1156 9.06973 7.1156H4.41835C4.07294 7.1156 3.74141 7.25292 3.49716 7.49716C3.25292 7.74141 3.1156 8.07294 3.1156 8.41835V13.4422H9.4422V7.48808ZM10.5578 13.4422H16.5119C16.9067 13.4422 17.2857 13.5982 17.5648 13.8774C17.844 14.1565 18 14.5355 18 14.9303V19.5816C18 20.2231 17.7459 20.8387 17.2923 21.2923C16.8387 21.7459 16.2231 22 15.5816 22H4.41835C3.77687 22 3.1613 21.7459 2.7077 21.2923C2.2541 20.8387 2 20.2231 2 19.5816V8.41835C2 7.77687 2.2541 7.1613 2.7077 6.7077C3.1613 6.2541 3.77687 6 4.41835 6H9.06973C9.46448 6 9.84351 6.15602 10.1226 6.43516C10.4018 6.71429 10.5578 7.09332 10.5578 7.48808V13.4422Z" fill="#542C0D"/>
<path d="M20.8268 3.56497C20.8268 3.34884 20.6512 3.17325 20.435 3.17325H14.565C14.3488 3.17325 14.1732 3.34884 14.1732 3.56497V9.43503C14.1732 9.65116 14.3488 9.82675 14.565 9.82675H20.435C20.6512 9.82675 20.8268 9.65116 20.8268 9.43503V3.56497ZM22 9.43503C22 10.2996 21.2996 11 20.435 11H14.565C13.7004 11 13 10.2996 13 9.43503V3.56497C13 2.70045 13.7004 2 14.565 2H20.435C21.2996 2 22 2.70045 22 3.56497V9.43503Z" fill="#542C0D"/>
</svg>
