<svg width="24" height="24" viewBox="0 0 24 24" fill="none" xmlns="http://www.w3.org/2000/svg">
<rect x="6.73828" y="1.57324" width="13.6845" height="16.6828" fill="#FDE272"/>
<path d="M4 2H7V19H4V2Z" fill="white"/>
<path d="M4 18H20V22H4V18Z" fill="white"/>
<path d="M6.15797 1.57327V18.256C6.15797 18.5728 6.41697 18.8293 6.73672 18.8293C7.05647 18.8293 7.31548 18.5728 7.31548 18.256V1.57327C7.31548 1.25655 7.05647 1 6.73672 1C6.41697 1 6.15797 1.25655 6.15797 1.57327Z" fill="#542C0D"/>
<path d="M17.2633 6.31723C17.583 6.31723 17.842 6.06068 17.842 5.74396C17.842 5.42724 17.583 5.17069 17.2633 5.17069H9.89469C9.57494 5.17069 9.31593 5.42724 9.31593 5.74396C9.31593 6.06068 9.57494 6.31723 9.89469 6.31723H17.2633Z" fill="#542C0D"/>
<path d="M16.2106 9.44525C16.5304 9.44525 16.7894 9.1887 16.7894 8.87198C16.7894 8.55526 16.5304 8.29871 16.2106 8.29871H10.9473C10.6276 8.29871 10.3686 8.55526 10.3686 8.87198C10.3686 9.1887 10.6276 9.44525 10.9473 9.44525H16.2106Z" fill="#542C0D"/>
<path d="M3 19.2987C3 19.6154 3.259 19.872 3.57875 19.872C3.89851 19.872 4.15751 19.6154 4.15751 19.2987C4.15767 19.2979 4.15819 19.2942 4.15957 19.2906C4.16243 19.283 4.17065 19.2673 4.18835 19.2447C4.22554 19.1975 4.29868 19.1324 4.42273 19.0655C4.67273 18.9309 5.05768 18.8293 5.51445 18.8293H20.4212C20.741 18.8293 21 18.5728 21 18.256C21 17.9393 20.741 17.6828 20.4212 17.6828H5.51445C4.90248 17.6828 4.31911 17.8148 3.86865 18.0575C3.4405 18.2882 3 18.7018 3 19.2987Z" fill="#542C0D"/>
<path d="M20.4212 23C20.741 23 21 22.7435 21 22.4267V1.57327C21 1.25655 20.741 1 20.4212 1H5.51445C4.11701 1 3 2.13818 3 3.52217V20.4778C3 21.8618 4.11701 23 5.51445 23H20.4212ZM4.15751 3.52217C4.15751 2.75393 4.77422 2.14653 5.51445 2.14653H19.8425V21.8535H5.51445C4.77422 21.8535 4.15751 21.2461 4.15751 20.4778V3.52217Z" fill="#542C0D"/>
</svg>
