<svg width="24" height="24" viewBox="0 0 24 24" fill="none" xmlns="http://www.w3.org/2000/svg">
<path d="M2 7C2 5.89543 2.89543 5 4 5H20C21.1046 5 22 5.89543 22 7V10H2V7Z" fill="#FDE272"/>
<rect x="2" y="10" width="20" height="9" fill="white"/>
<path d="M21.7555 6.73657C21.7555 5.92264 21.1046 5.2624 20.3022 5.2624H3.69781C2.8954 5.2624 2.24452 5.92264 2.24452 6.73657V17.2634C2.24452 18.0774 2.8954 18.7376 3.69781 18.7376H20.3022C21.1046 18.7376 21.7555 18.0774 21.7555 17.2634V6.73657ZM23 17.2634C23 18.775 21.7924 20 20.3022 20H3.69781C2.20763 20 1 18.775 1 17.2634V6.73657C1 5.22498 2.20763 4 3.69781 4H20.3022C21.7924 4 23 5.22498 23 6.73657V17.2634Z" fill="#542C0D"/>
<path d="M22.3777 9.26343C22.7216 9.26343 23 9.5458 23 9.89463C23 10.2435 22.7216 10.5258 22.3777 10.5258H1.62226C1.27837 10.5258 1 10.2435 1 9.89463C1 9.5458 1.27837 9.26343 1.62226 9.26343H22.3777Z" fill="#542C0D"/>
</svg>
