<svg width="24" height="24" viewBox="0 0 24 24" fill="none" xmlns="http://www.w3.org/2000/svg">
<circle cx="12" cy="12" r="9" fill="#FDE272"/>
<path d="M15.7911 20.0171C16.0737 19.8835 16.411 20.0037 16.5448 20.2862C16.6784 20.5688 16.5574 20.9061 16.2748 21.0398C13.8817 22.1715 11.1374 22.3087 8.64361 21.4203C8.34924 21.3153 8.19599 20.9915 8.30089 20.6971C8.4058 20.4026 8.72962 20.2485 9.02411 20.3534C11.2355 21.1411 13.669 21.0207 15.7911 20.0171ZM3.12312 15.2549C3.40977 15.1303 3.74285 15.2613 3.86754 15.5479C4.36547 16.6934 5.09988 17.7213 6.02249 18.5633C6.2534 18.7741 6.27008 19.1321 6.05934 19.363C5.84858 19.5938 5.49051 19.6096 5.25964 19.3989C4.2193 18.4494 3.3907 17.2911 2.82922 15.9993C2.70469 15.7127 2.83655 15.3796 3.12312 15.2549ZM11.9999 2C13.9401 1.99967 15.8381 2.5637 17.4633 3.62335C19.0885 4.68305 20.3709 6.19275 21.1532 7.96825C21.9353 9.7436 22.1838 11.708 21.869 13.6223C21.5542 15.5368 20.6893 17.3188 19.3796 18.7503C19.1686 18.9807 18.8105 18.9963 18.5799 18.7854C18.3496 18.5743 18.334 18.2162 18.5449 17.9857C19.7062 16.7163 20.4732 15.1366 20.7524 13.439C21.0316 11.7412 20.8104 9.99879 20.1167 8.4243C19.423 6.84985 18.2863 5.51109 16.8451 4.57138C15.4039 3.6317 13.7204 3.13106 11.9999 3.13137C11.6874 3.13137 11.4343 2.87827 11.4343 2.56568C11.4343 2.25311 11.6874 2.00006 11.9999 2ZM11.4343 6.33937C11.4343 6.02675 11.6873 5.77369 11.9999 5.77369C12.3126 5.77369 12.5656 6.02675 12.5656 6.33937V11.6489L16.027 13.38C16.3066 13.5198 16.4202 13.8605 16.2804 14.1401C16.1405 14.4197 15.7999 14.5333 15.5203 14.3935L11.7466 12.5066C11.5548 12.4107 11.4343 12.2143 11.4343 11.9999V6.33937ZM2.4994 8.87482C2.59708 8.57788 2.91739 8.41604 3.21433 8.51366C3.51127 8.61134 3.67311 8.93166 3.57549 9.2286C3.2929 10.0876 3.14271 10.9851 3.13141 11.8893C3.12735 12.2018 2.87086 12.4516 2.55836 12.4477C2.2459 12.4436 1.99614 12.1871 2.00005 11.8746C2.01281 10.8551 2.18079 9.84338 2.4994 8.87482ZM5.52682 4.3779C5.76505 4.17557 6.12228 4.20426 6.32468 4.44239C6.52705 4.68067 6.49754 5.03787 6.25926 5.24025C5.98056 5.47696 5.71708 5.73105 5.4697 6.00033C5.25825 6.23051 4.90024 6.24577 4.67 6.03442C4.43977 5.82293 4.42443 5.46495 4.63591 5.23472C4.91492 4.931 5.21248 4.64488 5.52682 4.3779Z" fill="#542C0D"/>
</svg>
