<svg width="24" height="24" viewBox="0 0 24 24" fill="none" xmlns="http://www.w3.org/2000/svg">
<path d="M22.1144 17.3888L12 11L1.88557 17.3888C1.33744 17.735 1 18.3733 1 19.064C1 20.1332 1.79506 21 2.77579 21H21.2242C22.2049 21 23 20.1332 23 19.064C23 18.3733 22.6626 17.735 22.1144 17.3888Z" fill="#FDE272"/>
<path d="M22.4492 19.0644C22.449 19.8751 21.8566 20.4499 21.2236 20.4501H2.77441C2.14146 20.4499 1.54905 19.8751 1.54883 19.0644C1.54883 18.5476 1.80226 18.0912 2.17871 17.8534L11.999 11.6513L21.8193 17.8534C22.1958 18.0912 22.4492 18.5476 22.4492 19.0644ZM23.5488 19.0644C23.5488 18.1999 23.127 17.3784 22.4072 16.9237L12.293 10.5351C12.1136 10.4217 11.8845 10.4217 11.7051 10.5351L1.59082 16.9237C0.871039 17.3784 0.449219 18.1999 0.449219 19.0644C0.449451 20.3914 1.44652 21.5495 2.77441 21.5497H21.2236C22.5515 21.5495 23.5486 20.3914 23.5488 19.0644Z" fill="#542C0D"/>
<path d="M11.4492 9.92569V10.9999C11.4492 11.3037 11.6953 11.5497 11.999 11.5497C12.3028 11.5497 12.5488 11.3037 12.5488 10.9999V9.92569C12.5488 9.16109 12.9844 8.45818 13.6846 8.08194C14.8297 7.46703 15.6005 6.24075 15.5469 4.83976C15.4766 3.006 13.9753 1.52145 12.1367 1.45206C10.118 1.37601 8.44922 2.9798 8.44922 4.97745C8.44943 5.28103 8.6954 5.52726 8.99902 5.52726C9.30265 5.52726 9.54862 5.28103 9.54883 4.97745C9.54883 3.60975 10.6935 2.49914 12.0947 2.55167C13.3657 2.59961 14.3992 3.62982 14.4473 4.88175C14.484 5.84177 13.9584 6.68598 13.165 7.11222C12.1295 7.66834 11.4492 8.73164 11.4492 9.92569Z" fill="#542C0D"/>
</svg>
