<svg width="24" height="24" viewBox="0 0 24 24" fill="none" xmlns="http://www.w3.org/2000/svg">
<path d="M4 12H20V22H4V12Z" fill="#FDE272"/>
<path d="M22.4267 11C22.7435 11 23 11.2461 23 11.55C23 11.8539 22.7435 12.1 22.4267 12.1H1.57327C1.25655 12.1 1 11.8539 1 11.55C1 11.2461 1.25655 11 1.57327 11H22.4267Z" fill="#542C0D"/>
<path d="M2.99902 20.2436V11.5946C2.99902 11.2663 3.25803 11.0002 3.57778 11.0002C3.89753 11.0002 4.15653 11.2663 4.15653 11.5946V20.2436L4.16373 20.3988C4.19846 20.7576 4.35329 21.095 4.60371 21.3522C4.88995 21.6462 5.27828 21.8114 5.68309 21.8114H18.315C18.7198 21.8114 19.1081 21.6462 19.3943 21.3522C19.6806 21.0582 19.8415 20.6594 19.8415 20.2436V11.5946C19.8415 11.2663 20.1005 11.0002 20.4203 11.0002C20.74 11.0002 20.999 11.2663 20.999 11.5946V20.2436C20.999 20.9748 20.716 21.6756 20.2126 22.1926C19.7092 22.7096 19.0269 23.0002 18.315 23.0002H5.68309C4.97118 23.0002 4.28883 22.7096 3.78543 22.1926C3.28203 21.6756 2.99902 20.9748 2.99902 20.2436Z" fill="#542C0D"/>
<path d="M20.2795 3.01649C20.5895 2.9443 20.9038 3.11944 20.9816 3.40811C21.0591 3.69689 20.871 3.98966 20.5611 4.06208L3.71858 7.984C3.40854 8.05619 3.09422 7.88105 3.01647 7.59238C2.93896 7.3036 3.127 7.01083 3.43691 6.93841L20.2795 3.01649Z" fill="#542C0D"/>
<path d="M11.644 1.07894C11.9501 0.995787 12.2683 0.97799 12.5805 1.02813C12.8934 1.07838 13.1943 1.19541 13.4655 1.37188C13.7366 1.54835 13.9731 1.78081 14.161 2.05641C14.3485 2.33151 14.4834 2.64422 14.5593 2.97609L14.999 4.72677C15.0683 5.02729 14.9002 5.33207 14.6228 5.40731C14.3452 5.48246 14.0639 5.29932 13.9944 4.99879L13.5547 3.24911L13.5538 3.24711C13.5107 3.05805 13.4343 2.87969 13.3275 2.72301C13.2207 2.56628 13.0861 2.43376 12.9319 2.33341C12.7778 2.2331 12.6066 2.16671 12.4287 2.13812C12.2507 2.10954 12.0687 2.11944 11.8942 2.16701L11.8924 2.16801L10.0662 2.65625L10.0671 2.65724C9.89314 2.70477 9.72901 2.78831 9.58506 2.90435C9.44114 3.02041 9.32006 3.16691 9.22812 3.3338C9.13624 3.50066 9.07557 3.6856 9.04964 3.87784C9.03019 4.02219 9.03053 4.16854 9.05056 4.31227L9.07724 4.45475V4.45675L9.49902 6C9.56806 6.30077 9.39862 6.60576 9.12092 6.68054C8.84331 6.75512 8.56251 6.57169 8.4935 6.27102L8.07171 4.72777L8.07263 4.72677C7.99575 4.39621 7.97839 4.05275 8.02387 3.71542C8.0695 3.37714 8.17676 3.05146 8.3385 2.75788C8.50021 2.46448 8.71377 2.20863 8.96684 2.0046C9.22005 1.80047 9.50806 1.65174 9.81414 1.56818H9.81598L11.644 1.07894Z" fill="#542C0D"/>
</svg>
