<svg width="24" height="24" viewBox="0 0 24 24" fill="none" xmlns="http://www.w3.org/2000/svg">
<path d="M6.7832 7.47822L8.17451 6.08691H22.4354V18.2608H8.17451L6.7832 16.5217V7.47822Z" fill="white"/>
<path d="M1.56445 17.913V6.08691H5.39054L6.78184 7.47822V16.5217L5.39054 17.913H1.56445Z" fill="#FDE272"/>
<circle cx="12.0007" cy="9.21723" r="1.3913" fill="#FDE272"/>
<circle cx="16.8698" cy="14.7824" r="1.3913" fill="#FDE272"/>
<path d="M5.50679 5.41895C5.67393 5.41895 5.8312 5.49902 5.92935 5.6343L6.77514 6.80074L7.62092 5.6343L7.66033 5.58606C7.75841 5.48015 7.89726 5.41895 8.04348 5.41895H22.4783C22.7664 5.41895 23 5.65254 23 5.94068V18.0589C23 18.347 22.7664 18.5806 22.4783 18.5806H8.04348C7.87631 18.5806 7.71907 18.5006 7.62092 18.3653L6.77514 17.1988L5.92935 18.3653C5.83121 18.5006 5.67397 18.5806 5.50679 18.5806H1.52174C1.23359 18.5806 1 18.347 1 18.0589V5.94068C1 5.65254 1.23359 5.41895 1.52174 5.41895H5.50679ZM18.0177 14.5732C18.0176 14.1217 17.6519 13.7553 17.2004 13.7552C16.7489 13.7552 16.3826 14.1216 16.3825 14.5732C16.3825 15.0248 16.7488 15.3911 17.2004 15.3911C17.652 15.391 18.0177 15.0248 18.0177 14.5732ZM16.5095 9.37954C16.7133 9.17579 17.0435 9.17579 17.2473 9.37954C17.4509 9.58331 17.451 9.9136 17.2473 10.1173L12.7439 14.6207C12.5402 14.8243 12.2098 14.8243 12.0061 14.6207C11.8024 14.417 11.8025 14.0867 12.0061 13.8829L16.5095 9.37954ZM6.2534 13.2335V10.7661C6.2534 10.4779 6.48699 10.2444 6.77514 10.2444C7.06328 10.2444 7.29688 10.4779 7.29688 10.7661V13.2335C7.29688 13.5216 7.06328 13.7552 6.77514 13.7552C6.48699 13.7552 6.2534 13.5216 6.2534 13.2335ZM12.8709 9.42642C12.8709 8.97474 12.5047 8.60848 12.053 8.60848C11.6014 8.6086 11.2351 8.97482 11.2351 9.42642C11.2351 9.87799 11.6015 10.2442 12.053 10.2444C12.5047 10.2444 12.8709 9.87807 12.8709 9.42642ZM6.2534 9.42642V7.85848L5.24117 6.46242H2.04348V17.5372H5.24117L6.2534 16.1404V14.5732C6.2535 14.2851 6.48705 14.0514 6.77514 14.0514C7.06322 14.0514 7.29677 14.2851 7.29688 14.5732V16.1404L8.3091 17.5372H21.9565V6.46242H8.3091L7.29688 7.85848V9.42642C7.29685 9.71455 7.06327 9.94815 6.77514 9.94816C6.487 9.94816 6.25342 9.71455 6.2534 9.42642ZM19.0611 14.5732C19.0611 15.6011 18.2283 16.4344 17.2004 16.4346C16.1725 16.4346 15.339 15.6011 15.339 14.5732C15.3391 13.5453 16.1725 12.7117 17.2004 12.7117C18.2282 12.7119 19.061 13.5454 19.0611 14.5732ZM13.9144 9.42642C13.9144 10.4544 13.0809 11.2878 12.053 11.2878C11.0252 11.2877 10.1916 10.4543 10.1916 9.42642C10.1916 8.3985 11.0252 7.56512 12.053 7.56501C13.081 7.56501 13.9144 8.39844 13.9144 9.42642Z" fill="#542C0D"/>
</svg>
