<svg width="24" height="24" viewBox="0 0 24 24" fill="none" xmlns="http://www.w3.org/2000/svg">
<rect x="3" y="3" width="18" height="18" rx="2" fill="#FDE272"/>
<path d="M20.4004 5C20.4004 4.2268 19.7732 3.59961 19 3.59961H5C4.2268 3.59961 3.59961 4.2268 3.59961 5V19C3.59961 19.7732 4.2268 20.4004 5 20.4004H19C19.7732 20.4004 20.4004 19.7732 20.4004 19V5ZM13.4004 15.7998C13.7316 15.8 14 16.0691 14 16.4004C13.9998 16.7315 13.7315 16.9998 13.4004 17H7.59961C7.26855 16.9998 7.00021 16.7315 7 16.4004C7 16.0691 7.26842 15.8 7.59961 15.7998H13.4004ZM16.4004 11.7998C16.7316 11.8 17 12.0691 17 12.4004C16.9998 12.7315 16.7315 12.9998 16.4004 13H7.59961C7.26855 12.9998 7.00021 12.7315 7 12.4004C7 12.0691 7.26842 11.8 7.59961 11.7998H16.4004ZM16.4004 7.7998C16.7316 7.80002 17 8.06915 17 8.40039C16.9998 8.73145 16.7315 8.99979 16.4004 9H7.59961C7.26855 8.99979 7.00021 8.73145 7 8.40039C7 8.06915 7.26842 7.80002 7.59961 7.7998H16.4004ZM21.5996 19C21.5996 20.4359 20.4359 21.5996 19 21.5996H5C3.56406 21.5996 2.40039 20.4359 2.40039 19V5C2.40039 3.56406 3.56406 2.40039 5 2.40039H19C20.4359 2.40039 21.5996 3.56406 21.5996 5V19Z" fill="#542C0D"/>
</svg>
