<svg width="24" height="24" viewBox="0 0 24 24" fill="none" xmlns="http://www.w3.org/2000/svg">
<path d="M12 22C14.3869 22 16.6761 20.9464 18.364 19.0711C20.0518 17.1957 21 14.6522 21 12H3C3 14.6522 3.94821 17.1957 5.63604 19.0711C7.32387 20.9464 9.61305 22 12 22Z" fill="#FDE272"/>
<path d="M20 12.5H4L3.5 9.5L4.5 7.5L6.5 6.5H9L10.5 7V6L12.5 4.5H14L14.5 4L15.5 3.5L17.5 4L19.5 3.5L21 4.5L21.5 5.5L21 7.5L21.5 9L21 10.5L20 11V12.5Z" fill="white"/>
<path d="M20.8974 11.7837C21.046 11.7837 21.1883 11.8424 21.2934 11.9467C21.3985 12.051 21.4575 12.1923 21.4575 12.3399C21.4575 14.9019 20.4328 17.3591 18.6082 19.1708C16.7837 20.9825 14.3091 22 11.7288 22C9.14849 22 6.67382 20.9825 4.84929 19.1708C3.02475 17.3591 2 14.9019 2 12.3399C2 12.1923 2.05907 12.051 2.16415 11.9467C2.26923 11.8424 2.41151 11.7837 2.56011 11.7837H20.8974ZM3.14111 12.896C3.27659 14.9599 4.16038 16.9121 5.64219 18.3835C7.25657 19.9865 9.44569 20.8877 11.7288 20.8877L12.1556 20.8768C14.2832 20.772 16.3018 19.8863 17.8153 18.3835C19.2972 16.9121 20.1809 14.9599 20.3164 12.896H3.14111Z" fill="#542C0D"/>
<path d="M19.1743 3.00523C19.908 3.04879 20.6005 3.35845 21.1203 3.87453C21.6399 4.39063 21.951 5.07828 21.9948 5.80675C22.0303 6.39861 21.8843 6.98248 21.5859 7.48905C21.7479 7.77678 21.862 8.08941 21.9211 8.41565C22.0044 8.87498 21.9785 9.34731 21.8445 9.79468C21.7106 10.2421 21.4727 10.6524 21.1501 10.992C20.937 11.2164 20.69 11.4044 20.4199 11.553C20.4489 11.8508 20.4354 12.1519 20.3771 12.447C20.3175 12.7485 20.0231 12.9447 19.7195 12.8857C19.4159 12.8265 19.2182 12.5342 19.2778 12.2327C19.3346 11.9449 19.3265 11.6477 19.2539 11.3634C19.1834 11.0863 19.3355 10.8018 19.6061 10.7045C19.8832 10.6048 20.1331 10.4413 20.3353 10.2283C20.5375 10.0154 20.6861 9.75807 20.7701 9.47759C20.854 9.19714 20.871 8.90116 20.8188 8.61322C20.7666 8.32514 20.6469 8.05285 20.4696 7.81899C20.3168 7.61742 20.3196 7.33872 20.4766 7.14034C20.7614 6.78055 20.9039 6.32973 20.8765 5.87294C20.8491 5.41599 20.6534 4.98454 20.3274 4.66085C20.0015 4.33735 19.5676 4.14393 19.1077 4.11655C18.6475 4.08927 18.1927 4.22985 17.8303 4.51268C17.6304 4.66864 17.3498 4.67146 17.1468 4.51959C16.9391 4.36428 16.7013 4.25326 16.4484 4.1936C16.1954 4.13397 15.9323 4.12677 15.6764 4.17286C15.4206 4.21897 15.1768 4.31728 14.9611 4.46131C14.7453 4.60544 14.5613 4.79264 14.4219 5.01055C14.2789 5.23397 13.9972 5.32657 13.7483 5.23183C13.43 5.1107 13.0843 5.07757 12.7485 5.13601C12.4125 5.19456 12.0981 5.34302 11.8402 5.56473C11.5823 5.78643 11.3896 6.07374 11.2831 6.39551C11.1766 6.71726 11.1601 7.0619 11.2353 7.39224C11.2694 7.54219 11.2396 7.69961 11.1527 7.8269C11.066 7.95394 10.9303 8.0397 10.7777 8.06398C10.308 8.13829 9.88313 8.38668 9.58981 8.75843C9.29675 9.13006 9.15619 9.59796 9.19585 10.0683C9.23559 10.5389 9.45315 10.9772 9.8047 11.2952C10.1562 11.6132 10.6156 11.7876 11.0911 11.7832C11.4004 11.7804 11.6541 12.0273 11.6571 12.3344C11.66 12.6416 11.4113 12.8935 11.102 12.8965C10.3436 12.9035 9.61022 12.6253 9.0496 12.1181C8.48902 11.6109 8.14199 10.9116 8.07862 10.1612C8.01536 9.41089 8.24073 8.66457 8.70836 8.07188C9.06298 7.6225 9.53723 7.28665 10.0723 7.09886C10.058 6.74402 10.106 6.38792 10.2186 6.04779C10.3884 5.53462 10.6957 5.07662 11.107 4.72309C11.5183 4.36962 12.0187 4.13385 12.5545 4.04049C12.9473 3.97206 13.3482 3.98272 13.7344 4.06913C13.9095 3.86692 14.1114 3.68826 14.3353 3.53866C14.6795 3.30874 15.0683 3.15191 15.4764 3.07833C15.8844 3.00483 16.3036 3.01584 16.7071 3.11092C16.978 3.17479 17.2372 3.27692 17.4791 3.41123C17.9894 3.1148 18.5781 2.96988 19.1743 3.00523Z" fill="#542C0D"/>
<path d="M16.4265 7.90049C16.6453 7.68322 16.9996 7.68322 17.2184 7.90049C17.4372 8.11776 17.4372 8.46955 17.2184 8.68682L13.1435 12.733C12.9247 12.9503 12.5704 12.9503 12.3516 12.733C12.1327 12.5158 12.1327 12.164 12.3516 11.9467L16.4265 7.90049Z" fill="#542C0D"/>
<path d="M5.9317 6.03001C6.79489 5.6885 7.74168 5.61318 8.64867 5.81367C9.55566 6.01417 10.3807 6.48132 11.0164 7.15417C11.2281 7.37823 11.2171 7.73027 10.9916 7.9405C10.7659 8.15066 10.4114 8.13974 10.1997 7.9158C9.7179 7.40585 9.09227 7.05125 8.40493 6.89931C7.71773 6.74746 7.00056 6.80551 6.34656 7.06428C5.69254 7.3231 5.13152 7.77086 4.73786 8.35045C4.3442 8.93019 4.13539 9.6151 4.13896 10.3143V10.3163C4.13896 10.9511 4.31409 11.5441 4.6145 12.0618C4.769 12.328 4.67666 12.668 4.40856 12.8214C4.14052 12.9748 3.79808 12.884 3.64351 12.6179C3.25125 11.9421 3.01874 11.1583 3.01874 10.3163C3.0147 9.39472 3.28983 8.49326 3.80866 7.7291C4.32821 6.96399 5.0684 6.37165 5.9317 6.03001Z" fill="#542C0D"/>
</svg>
