<svg width="24" height="24" viewBox="0 0 24 24" fill="none" xmlns="http://www.w3.org/2000/svg">
<path d="M1.62891 7.97943V10.4779H22.6871L22.3302 7.62251L21.2594 6.55176H2.69966L1.62891 7.97943Z" fill="#FDE272"/>
<rect x="3.41211" y="10.835" width="17.1321" height="11.4214" fill="white"/>
<path d="M21.9292 8.22029C21.9292 7.53811 21.3757 6.98434 20.6919 6.98431H12.5357V10.1624H21.9292V8.22029ZM12.5357 21.4939H20.3329V11.2332H12.5357V21.4939ZM3.66713 21.4939H11.465V11.2332H3.66713V21.4939ZM2.07076 10.1624H11.465V6.98431H3.30812C2.62431 6.98438 2.07076 7.53815 2.07076 8.22029V10.1624ZM17.7745 4.44754C17.7745 3.68811 17.1573 3.07076 16.3942 3.07076C16.0037 3.07077 15.6317 3.23577 15.3702 3.52457L13.207 5.91356H16.3942C17.1573 5.91356 17.7745 5.29613 17.7745 4.53677V4.44754ZM6.22551 4.53677C6.22555 5.29612 6.84274 5.91354 7.60579 5.91356H10.793L8.62984 3.52457C8.36834 3.23576 7.99629 3.07076 7.60579 3.07076C6.84273 3.07077 6.22551 3.68812 6.22551 4.44754V4.53677ZM18.8452 4.53677C18.8452 5.04761 18.6879 5.52134 18.42 5.91356H20.6919C21.9662 5.91359 23 6.94591 23 8.22029V10.6978C23 10.9935 22.7603 11.2332 22.4646 11.2332H21.4036V22.0293C21.4036 22.325 21.1639 22.5647 20.8682 22.5647H3.13175C2.83607 22.5647 2.59637 22.325 2.59637 22.0293V11.2332H1.53538C1.2397 11.2332 1 10.9935 1 10.6978V8.22029C1 6.94592 2.03383 5.91363 3.30812 5.91356H5.57999C5.31214 5.52135 5.15477 5.0476 5.15476 4.53677V4.44754C5.15476 3.09498 6.25315 2.00001 7.60579 2C8.29837 2 8.95911 2.29258 9.42384 2.80586L11.9997 5.65075L14.5762 2.80586C15.0409 2.29259 15.7016 2.00001 16.3942 2C17.7469 2 18.8452 3.09497 18.8452 4.44754V4.53677Z" fill="#542C0D"/>
</svg>
