<svg width="24" height="24" viewBox="0 0 24 24" fill="none" xmlns="http://www.w3.org/2000/svg">
<path fill-rule="evenodd" clip-rule="evenodd" d="M20.6404 12.205C20.6404 11.5669 20.5834 10.9529 20.4764 10.3639H12V13.845H16.8442C16.6352 14.9701 16.0012 15.9241 15.0481 16.5622V18.8203H17.9563C19.6583 17.2532 20.6404 14.9461 20.6404 12.205Z" fill="#3D82F0"/>
<path fill-rule="evenodd" clip-rule="evenodd" d="M12.0004 21.0009C14.4305 21.0009 16.4676 20.1949 17.9566 18.8208L15.0485 16.5617C14.2425 17.1017 13.2114 17.4207 12.0004 17.4207C9.65628 17.4207 7.67219 15.8377 6.96416 13.7106H3.95703V16.0427C5.4381 18.9838 8.48223 21.0009 12.0004 21.0009Z" fill="#31A752"/>
<path fill-rule="evenodd" clip-rule="evenodd" d="M6.96417 13.7104C6.78416 13.1704 6.68216 12.5933 6.68216 12.0003C6.68216 11.4073 6.78416 10.8303 6.96417 10.2902V7.95813H3.95704C3.34802 9.17318 3 10.5482 3 12.0003C3 13.4524 3.34802 14.8274 3.95704 16.0425L6.96417 13.7104Z" fill="#F9BA00"/>
<path fill-rule="evenodd" clip-rule="evenodd" d="M12.0004 6.57979C13.3214 6.57979 14.5085 7.03381 15.4405 7.92585L18.0226 5.34474C16.4636 3.89167 14.4265 2.99963 12.0004 2.99963C8.48223 2.99963 5.4381 5.01672 3.95703 7.95885L6.96416 10.29C7.67219 8.16286 9.65628 6.57979 12.0004 6.57979Z" fill="#E64234"/>
</svg>
