<svg width="24" height="24" viewBox="0 0 24 24" fill="none" xmlns="http://www.w3.org/2000/svg">
<path d="M2.625 16.67V10.9623H6.27098L7.83355 12.5189V16.67L6.79184 18.2267H4.18756L2.625 16.67Z" fill="#FDE272"/>
<path d="M21.375 16.67V10.9623H17.729L16.1665 12.5189V16.67L17.2082 18.2267H19.8124L21.375 16.67Z" fill="#FDE272"/>
<path d="M7.20855 13.0378C7.20855 12.6524 7.05478 12.2826 6.78128 12.0101C6.50778 11.7377 6.13654 11.5845 5.74975 11.5845H3.24924V16.1511C3.24924 16.5364 3.403 16.9063 3.6765 17.1787C3.95 17.4512 4.32125 17.6044 4.70804 17.6044H5.74975C6.13654 17.6044 6.50778 17.4512 6.78128 17.1787C7.02053 16.9404 7.16822 16.6275 7.20142 16.295L7.20855 16.1511V13.0378ZM8.45778 16.1511C8.45778 16.8667 8.17324 17.5534 7.66531 18.0594C7.15738 18.5654 6.46807 18.8489 5.74975 18.8489H4.70804C3.98971 18.8489 3.3004 18.5654 2.79247 18.0594C2.28454 17.5534 2 16.8667 2 16.1511V10.9622C2 9.65391 2.25837 8.35834 2.76094 7.14962C3.2635 5.94094 4.00019 4.84282 4.92879 3.91773C5.85739 2.99264 6.95967 2.25873 8.17294 1.75806C9.38625 1.25739 10.6867 1 12 1C13.3133 1 14.6138 1.25739 15.8271 1.75806C17.0403 2.25873 18.1426 2.99264 19.0712 3.91773C19.9998 4.84282 20.7365 5.94094 21.2391 7.14962C21.7416 8.35834 22 9.65391 22 10.9622V18.2266C22 19.4927 21.4958 20.7072 20.5972 21.6025C19.6985 22.4977 18.4794 23 17.2085 23H12C11.6548 23 11.3754 22.7216 11.3754 22.3777C11.3754 22.0339 11.6548 21.7555 12 21.7555H17.2085C18.1479 21.7555 19.0489 21.3835 19.7131 20.7218C20.3302 20.107 20.6948 19.2886 20.7436 18.4253C20.3126 18.6983 19.8108 18.8489 19.292 18.8489H18.2503C17.5319 18.8489 16.8426 18.5654 16.3347 18.0594C15.8902 17.6166 15.617 17.0354 15.5554 16.4176L15.5422 16.1511V13.0378C15.5422 12.3222 15.8268 11.6355 16.3347 11.1294C16.8426 10.6234 17.5319 10.34 18.2503 10.34H20.7253C20.6584 9.40826 20.4443 8.49142 20.0844 7.62594C19.6447 6.5684 18.9997 5.60784 18.1872 4.79842C17.3747 3.98899 16.4105 3.34641 15.3489 2.90833C14.2873 2.47024 13.1491 2.24452 12 2.24452C10.8509 2.24452 9.71271 2.47024 8.65107 2.90833C7.58951 3.34641 6.62531 3.98899 5.81282 4.79842C5.00033 5.60784 4.35531 6.5684 3.91556 7.62594C3.55571 8.49143 3.34162 9.40826 3.27467 10.34H5.74975C6.46807 10.34 7.15738 10.6234 7.66531 11.1294C8.17324 11.6355 8.45778 12.3222 8.45778 13.0378V16.1511ZM16.7915 16.1511C16.7915 16.5364 16.9452 16.9063 17.2187 17.1787C17.4922 17.4512 17.8635 17.6044 18.2503 17.6044H19.292C19.6788 17.6044 20.05 17.4512 20.3235 17.1787C20.597 16.9063 20.7508 16.5364 20.7508 16.1511V11.5845H18.2503C17.8635 11.5845 17.4922 11.7377 17.2187 12.0101C16.9452 12.2826 16.7915 12.6524 16.7915 13.0378V16.1511Z" fill="#542C0D"/>
</svg>
