<svg width="24" height="24" viewBox="0 0 24 24" fill="none" xmlns="http://www.w3.org/2000/svg">
<path d="M2.56641 8.70754C2.56643 7.66902 2.8849 6.65493 3.47977 5.79921C4.07464 4.94349 4.91791 4.2864 5.89822 3.91472C6.87852 3.54305 7.94974 3.47427 8.97039 3.71747C9.99104 3.96068 10.9131 4.50443 11.6148 5.2769C11.6642 5.32918 11.724 5.37085 11.7904 5.39934C11.8567 5.42784 11.9283 5.44254 12.0007 5.44254C12.073 5.44254 12.1446 5.42784 12.211 5.39934C12.2774 5.37085 12.3371 5.32918 12.3865 5.2769C13.086 4.49941 14.0083 3.95109 15.0306 3.70493C16.0529 3.45877 17.1268 3.52644 18.1092 3.89894C19.0917 4.27143 19.9362 4.93109 20.5303 5.7901C21.1244 6.64911 21.4399 7.66674 21.4349 8.70754C21.4349 10.8447 20.0198 12.4406 18.6046 13.8404L13.4233 18.7988C13.2476 18.9985 13.0308 19.159 12.7875 19.2695C12.5442 19.3799 12.28 19.438 12.0123 19.4396C11.7446 19.4413 11.4796 19.3866 11.2349 19.2792C10.9902 19.1718 10.7714 19.0141 10.5931 18.8165L5.39668 13.8404C3.98154 12.4406 2.56641 10.854 2.56641 8.70754Z" fill="#FDE272"/>
<path d="M14.8956 3.16128C16.0297 2.88822 17.2211 2.96317 18.3109 3.37637C19.4006 3.78952 20.3376 4.52075 20.9966 5.47346C21.6552 6.42573 22.005 7.55418 21.9999 8.70795L21.9953 8.93032C21.9006 11.2085 20.367 12.8879 19.0038 14.2364L18.9973 14.2428L13.8159 19.2016C13.5933 19.4445 13.3241 19.6416 13.0226 19.7785C12.7064 19.922 12.3626 19.9978 12.0147 20C11.667 20.0021 11.3228 19.9307 11.0049 19.7912C10.6992 19.657 10.4255 19.4609 10.1988 19.218V19.2189L5.00256 14.2428L4.99519 14.2364V14.2355C3.5887 12.8441 2.00018 11.109 2 8.70795C2.00002 7.55613 2.35276 6.43073 3.01252 5.48166C3.6722 4.53276 4.60744 3.8041 5.69447 3.39186C6.78172 2.97964 7.97042 2.9034 9.10241 3.17313C10.2173 3.43882 11.2253 4.02844 11.999 4.86466C12.7704 4.02341 13.7793 3.43017 14.8956 3.16128ZM3.13137 8.70795C3.13156 10.5961 4.36875 12.0321 5.78937 13.438L10.9865 18.4142L11.0141 18.4433C11.139 18.5816 11.2925 18.6926 11.4637 18.7678C11.635 18.8429 11.8209 18.881 12.0082 18.8799C12.1955 18.8787 12.3807 18.8378 12.5509 18.7605C12.721 18.6832 12.8729 18.5712 12.9959 18.4315L13.0291 18.3959L18.2105 13.438C19.6306 12.0325 20.8683 10.5871 20.8685 8.70795V8.70521C20.873 7.77816 20.5915 6.87109 20.0624 6.10596C19.5332 5.34093 18.7806 4.75348 17.9056 4.42172C17.0306 4.09006 16.0742 4.02935 15.1637 4.24856C14.2532 4.46782 13.4319 4.95683 12.8089 5.64935C12.8058 5.65273 12.8028 5.65608 12.7996 5.65938C12.6973 5.76761 12.5731 5.85373 12.4357 5.91274C12.3327 5.95695 12.2236 5.98523 12.1123 5.99659L11.9999 6.00206C11.8501 6.00206 11.7017 5.97176 11.5642 5.91274C11.4268 5.85373 11.3026 5.76761 11.2002 5.65938L11.1929 5.65118C10.5677 4.96302 9.74633 4.47891 8.83707 4.26223C7.92777 4.04556 6.97321 4.10609 6.09985 4.43722C5.22652 4.76835 4.47577 5.35455 3.94582 6.11689C3.4159 6.87924 3.13139 7.78276 3.13137 8.70795Z" fill="#542C0D"/>
</svg>
