<svg width="24" height="24" viewBox="0 0 24 24" fill="none" xmlns="http://www.w3.org/2000/svg">
<path d="M15.03 1.52173C13.8933 1.52173 12.8843 2.06825 12.2503 2.91299C11.6164 2.06825 10.6073 1.52173 9.47067 1.52173C7.55171 1.52173 5.99609 3.07899 5.99609 4.99999C5.99609 9.52173 12.2503 12.6956 12.2503 12.6956C12.2503 12.6956 18.5046 9.52173 18.5046 4.99999C18.5046 3.07899 16.949 1.52173 15.03 1.52173Z" fill="#FDE272"/>
<path d="M13.6401 22.4784H18.1571V20.5764L21.572 17.1578C21.8327 16.8969 21.9791 16.543 21.9791 16.174V12.6957C21.9791 11.9274 21.3569 11.3044 20.5893 11.3044C19.8217 11.3044 19.1995 11.9274 19.1995 12.6957V15.1305" fill="white"/>
<path d="M13.6401 22.4784V17.9131C13.6401 17.5441 13.7866 17.1903 14.0472 16.9294L16.8269 14.1467C17.3697 13.6034 18.2496 13.6034 18.7924 14.1467C19.3352 14.6901 19.3352 15.571 18.7924 16.1143L17.6904 17.2175" fill="white"/>
<path d="M10.8605 22.4784H6.34352V20.5764L2.92857 17.1578C2.66794 16.8969 2.52148 16.543 2.52148 16.174V12.6957C2.52148 11.9274 3.14374 11.3044 3.91132 11.3044C4.67889 11.3044 5.30115 11.9274 5.30115 12.6957L5.3018 15.1305" fill="white"/>
<path d="M10.8605 22.4784V17.9131C10.8605 17.5441 10.714 17.1903 10.4534 16.9294L7.67372 14.1467C7.13094 13.6034 6.25096 13.6034 5.70819 14.1467C5.16542 14.6901 5.16542 15.571 5.70819 16.1143L6.8102 17.2175" fill="white"/>
<path d="M4.77966 12.6957C4.77966 12.2154 4.39075 11.8261 3.91102 11.8261C3.43128 11.8261 3.04237 12.2154 3.04237 12.6957V16.1739C3.04237 16.4045 3.13394 16.6256 3.29686 16.7887L6.71172 20.2072C6.8094 20.305 6.86435 20.4378 6.86441 20.5761V21.9565H10.339V17.913C10.339 17.6824 10.2474 17.4613 10.0845 17.2982L7.30484 14.5156C6.96561 14.176 6.41575 14.176 6.07652 14.5156C5.91054 14.6818 5.82558 14.8984 5.82203 15.1162L5.82271 15.1304C5.82271 15.1325 5.82206 15.1345 5.82203 15.1365C5.82357 15.357 5.90846 15.577 6.07652 15.7452L7.17861 16.8485C7.382 17.0522 7.382 17.3826 7.17861 17.5863C6.97511 17.79 6.64517 17.7899 6.44162 17.5863L5.33953 16.483C4.96637 16.1095 4.77966 15.62 4.77966 15.1304V12.6957ZM21.4576 16.1739V12.6957C21.4576 12.2154 21.0687 11.8261 20.589 11.8261C20.1092 11.8261 19.7203 12.2154 19.7203 12.6957V15.1304C19.7203 15.62 19.5336 16.1095 19.1605 16.483L18.0584 17.5863C17.8548 17.7899 17.5249 17.79 17.3214 17.5863C17.118 17.3826 17.118 17.0522 17.3214 16.8485L18.4235 15.7452C18.7627 15.4057 18.7627 14.8552 18.4235 14.5156C18.0842 14.176 17.5344 14.176 17.1952 14.5156L14.4155 17.2982C14.2526 17.4613 14.161 17.6824 14.161 17.913V21.9565H17.6356V20.5761C17.6357 20.4378 17.6906 20.305 17.7883 20.2072L21.2031 16.7887C21.3661 16.6256 21.4576 16.4045 21.4576 16.1739ZM12.4855 13.161C12.3374 13.2361 12.1626 13.2361 12.0145 13.161L12.25 12.6957L12.4855 13.161ZM17.9831 5C17.9831 3.36715 16.6608 2.04348 15.0297 2.04348C14.0639 2.04348 13.2065 2.50701 12.6667 3.22622C12.5682 3.3574 12.4139 3.43478 12.25 3.43478C12.0861 3.43478 11.9318 3.3574 11.8333 3.22622C11.2935 2.50701 10.4361 2.04348 9.47034 2.04348C7.83922 2.04348 6.51695 3.36715 6.51695 5C6.51695 7.02282 7.92684 8.81346 9.46423 10.1495C10.2202 10.8064 10.979 11.3285 11.5497 11.6868C11.8343 11.8656 12.0708 12.0033 12.2351 12.0951C12.2399 12.0978 12.2453 12.0999 12.25 12.1026C12.2547 12.0999 12.2601 12.0978 12.2649 12.0951C12.4292 12.0033 12.6657 11.8656 12.9503 11.6868C13.521 11.3285 14.2798 10.8064 15.0358 10.1495C16.5732 8.81346 17.9831 7.02282 17.9831 5ZM5.82203 13.426C6.53999 13.0591 7.44106 13.1764 8.04183 13.7779L10.8215 16.5605C11.1798 16.9192 11.3814 17.4056 11.3814 17.913V22.4783C11.3814 22.7664 11.148 23 10.8602 23H6.34322C6.05538 23 5.82203 22.7664 5.82203 22.4783V20.7921L2.55987 17.5265C2.20151 17.1678 2 16.6813 2 16.1739V12.6957C2 11.6391 2.8556 10.7826 3.91102 10.7826C4.96644 10.7826 5.82203 11.6391 5.82203 12.6957V13.426ZM22.5 16.1739C22.5 16.6813 22.2985 17.1678 21.9401 17.5265L18.678 20.7921V22.4783C18.678 22.7664 18.4446 23 18.1568 23H13.6398C13.352 23 13.1186 22.7664 13.1186 22.4783V17.913C13.1186 17.4056 13.3202 16.9192 13.6785 16.5605L16.4582 13.7779C17.059 13.1763 17.96 13.0596 18.678 13.4266V12.6957C18.678 11.6391 19.5336 10.7826 20.589 10.7826C21.6444 10.7826 22.5 11.6391 22.5 12.6957V16.1739ZM19.0254 5C19.0254 7.49883 17.3081 9.55613 15.7185 10.9375C14.911 11.6392 14.1061 12.1933 13.5041 12.5713C13.2026 12.7606 12.9503 12.9068 12.7725 13.0061C12.6839 13.0557 12.6137 13.0936 12.5649 13.1196C12.5405 13.1325 12.5212 13.1426 12.5079 13.1495C12.5012 13.1529 12.496 13.1557 12.4923 13.1576C12.4904 13.1586 12.4886 13.1591 12.4875 13.1596L12.4862 13.1603V13.161C12.486 13.1611 12.4857 13.161 12.25 12.6957C12.0143 13.161 12.014 13.1611 12.0138 13.161V13.1603L12.0125 13.1596C12.0114 13.1591 12.0096 13.1586 12.0077 13.1576C12.004 13.1557 11.9988 13.1529 11.9921 13.1495C11.9788 13.1426 11.9595 13.1325 11.9351 13.1196C11.8863 13.0936 11.8161 13.0557 11.7275 13.0061C11.5497 12.9068 11.2974 12.7606 10.9959 12.5713C10.3939 12.1933 9.589 11.6392 8.78153 10.9375C7.19188 9.55613 5.47458 7.49883 5.47458 5C5.47458 2.79085 7.26353 1 9.47034 1C10.5512 1 11.5312 1.43057 12.25 2.12772C12.9688 1.43057 13.9488 1 15.0297 1C17.2365 1 19.0254 2.79085 19.0254 5Z" fill="#542C0D"/>
</svg>
