<svg width="24" height="24" viewBox="0 0 24 24" fill="none" xmlns="http://www.w3.org/2000/svg">
<path fill-rule="evenodd" clip-rule="evenodd" d="M12 3.99951C7.032 3.99951 3 6.9671 3 10.6169C3 12.8938 4.557 14.8807 6.933 16.0916L5.934 19.5623C5.91515 19.6313 5.91903 19.7042 5.94512 19.7711C5.97121 19.838 6.01825 19.8957 6.07995 19.9365C6.14165 19.9774 6.21505 19.9993 6.29031 19.9995C6.36557 19.9997 6.43908 19.9781 6.501 19.9375L10.875 17.1831C11.244 17.1831 11.622 17.2428 12 17.2428C16.968 17.2428 21 14.2752 21 10.6169C21 6.95858 16.968 3.99951 12 3.99951Z" fill="black"/>
</svg>
