<svg width="24" height="24" viewBox="0 0 24 24" fill="none" xmlns="http://www.w3.org/2000/svg">
<path d="M3 4H21V15H3V4Z" fill="white"/>
<path d="M1 20L23 20L21.262 16H2.73572L1 20Z" fill="#FDE272"/>
<path d="M20.2471 5.85078C20.2471 5.42082 20.0779 5.00838 19.7769 4.70435C19.4759 4.40042 19.0674 4.22941 18.6418 4.22941H5.35817C4.93258 4.22948 4.52405 4.4004 4.2231 4.70435C3.92218 5.00837 3.75286 5.42089 3.75286 5.85078V15.3825C3.75305 15.8264 3.65144 16.2652 3.45449 16.6621L2.27185 19.0401L2.27077 19.0412C2.23262 19.1179 2.2152 19.2033 2.21888 19.2891C2.22266 19.3751 2.24749 19.4594 2.29239 19.5326C2.33728 19.6056 2.40061 19.6656 2.47509 19.7073C2.54974 19.7488 2.63414 19.7711 2.7194 19.7706H21.2806C21.3659 19.7712 21.4502 19.7489 21.5249 19.7073C21.5996 19.6656 21.6626 19.6058 21.7076 19.5326C21.7526 19.4593 21.7784 19.3752 21.7822 19.2891C21.7858 19.2032 21.7674 19.118 21.7292 19.0412L20.5466 16.6621C20.3496 16.2652 20.2469 15.8264 20.2471 15.3825V5.85078ZM21.4643 15.3836C21.4643 15.6357 21.5234 15.8842 21.6351 16.1097L22.8167 18.4877L22.9032 18.6918C22.9758 18.9003 23.008 19.1216 22.9983 19.3437C22.9853 19.6403 22.8971 19.9289 22.7421 20.1811C22.5871 20.4333 22.3703 20.6415 22.113 20.7849C21.8568 20.9276 21.5687 21.0003 21.2762 20.9989L2.72372 21C2.4313 21.0013 2.14309 20.9276 1.88701 20.7849C1.62969 20.6415 1.41285 20.4333 1.25785 20.1811C1.10294 19.9289 1.01468 19.6402 1.00165 19.3437C0.988702 19.0473 1.05215 18.7526 1.18434 18.4877L2.3659 16.1097C2.4776 15.8842 2.53571 15.6357 2.53562 15.3836V5.85078C2.53562 5.09472 2.83333 4.36991 3.36261 3.83525C3.89191 3.30066 4.60964 3.00008 5.35817 3H18.6418C19.3904 3 20.1091 3.30059 20.6384 3.83525C21.1676 4.36988 21.4643 5.09484 21.4643 5.85078V15.3836Z" fill="#542C0D"/>
<path d="M20.9152 15.284C21.2512 15.2842 21.5238 15.5592 21.5238 15.8987C21.5238 16.2381 21.2512 16.5131 20.9152 16.5134H3.0837C2.74745 16.5134 2.47509 16.2383 2.47509 15.8987C2.47509 15.559 2.74745 15.284 3.0837 15.284H20.9152Z" fill="#542C0D"/>
</svg>
