<svg width="24" height="24" viewBox="0 0 24 24" fill="none" xmlns="http://www.w3.org/2000/svg">
<path d="M11.6 20C9.94938 20.005 8.35719 19.3866 7.1392 18.2673C5.9212 17.1481 5.16637 15.6098 5.0244 13.9575C4.88243 12.3053 5.3637 10.6598 6.37275 9.34736C7.38181 8.03494 8.84494 7.15149 10.472 6.87222C15.83 5.83333 17.24 5.34222 19.12 3C20.06 4.88889 21 6.94777 21 10.5555C21 15.75 16.5068 20 11.6 20Z" fill="#FDE272"/>
<path d="M20.9058 10.5076C20.9058 7.28752 20.1742 5.29198 19.3365 3.5336C18.4998 4.45596 17.6592 5.09628 16.4826 5.60432C15.0876 6.20656 13.2367 6.61884 10.4122 7.16391L10.4005 7.16683C8.81364 7.43793 7.38612 8.29491 6.4019 9.5689C5.41771 10.8429 4.94871 12.4407 5.08716 14.0446C5.22563 15.6485 5.96123 17.1423 7.14916 18.2288C8.33716 19.3153 9.89059 19.9157 11.5005 19.9108H11.5025C16.4042 19.9107 20.9058 15.6681 20.9058 10.5076ZM22 10.5076C22 16.2922 16.9888 21.0038 11.5025 21.004C9.61845 21.0094 7.80093 20.3078 6.41065 19.0363C5.02011 17.7644 4.158 16.0163 3.99592 14.1389C3.83384 12.2614 4.38406 10.3917 5.5361 8.90036C6.68575 7.41213 8.35132 6.40876 10.2043 6.0892C13.0512 5.53981 14.7824 5.1465 16.0492 4.59957C17.2778 4.06905 18.081 3.38786 19.0362 2.20333L19.0829 2.1528C19.1987 2.04133 19.359 1.98571 19.5211 2.00315C19.7062 2.02313 19.8683 2.13601 19.9516 2.30244C20.9642 4.32754 22 6.58531 22 10.5076Z" fill="#542C0D"/>
<path d="M2 21.4529C2 18.2025 4.02938 15.6333 7.49509 14.9463C8.63185 14.7209 9.80441 14.2459 10.8184 13.7016C11.8365 13.155 12.6584 12.5583 13.1058 12.1109C13.3195 11.8972 13.6656 11.8972 13.8793 12.1109C14.093 12.3246 14.093 12.6707 13.8793 12.8844C13.3318 13.4319 12.4125 14.0887 11.3363 14.6665C10.2557 15.2466 8.97915 15.767 7.7079 16.0191C4.74611 16.6061 3.09416 18.7334 3.09416 21.4529C3.09416 21.7552 2.84933 22 2.54708 22C2.24483 22 2 21.7552 2 21.4529Z" fill="#542C0D"/>
</svg>
