<svg width="24" height="24" viewBox="0 0 24 24" fill="none" xmlns="http://www.w3.org/2000/svg">
<path d="M14 9V22.2223C14 22.65 14.375 23 14.8333 23H18.1667C18.625 23 19 22.65 19 22.2223V9H14Z" fill="#FDE272"/>
<path d="M3 8H7V16H3V8Z" fill="white"/>
<path d="M2 16H8V22H2V16Z" fill="white"/>
<path d="M11 4.5L14.5 9H18.5L22.5 4.5C21.3 2.5 18.3333 1.66667 17 1.5C13.4 1.5 11.5 3.5 11 4.5Z" fill="white"/>
<path d="M6.2572 2.04111L3.7428 2.81916C3.33425 2.94558 3 3.32749 3 3.66788V8H7V2.43015C7 2.08976 6.66575 1.91469 6.2572 2.04111Z" fill="#FDE272"/>
<path d="M7.81421 16.3333H2.07042V21.736C2.07067 21.8539 2.17159 21.9525 2.29192 21.9527H7.59271C7.71307 21.9525 7.81397 21.8538 7.81421 21.736V16.3333ZM18.5223 9.6666H14.7254V21.736C14.7257 21.8207 14.8157 21.9526 15.0011 21.9527H18.2466C18.4319 21.9526 18.522 21.8206 18.5223 21.736V9.6666ZM3.04388 15.286H6.84075V8.71422H3.04388V15.286ZM16.6238 2.04752C14.4454 2.04753 12.5497 3.0113 11.4457 4.44336L14.6988 8.61935H18.5489L21.801 4.44336C20.6969 3.01153 18.802 2.04752 16.6238 2.04752ZM8.88464 21.736C8.8844 22.4324 8.30445 22.9998 7.59271 23H2.29192C1.58012 22.9998 1.00024 22.4324 1 21.736V15.8097C1 15.5204 1.23952 15.286 1.53521 15.286H1.97346V3.37751C1.97346 3.01099 2.16276 2.68765 2.38319 2.45767C2.6103 2.22073 2.91981 2.02863 3.26443 1.93126L6.3236 1.0663C6.66451 0.969982 7.0332 0.970929 7.34554 1.12024C7.6798 1.2801 7.91118 1.59864 7.91118 2.00194V15.286H8.34942C8.64512 15.286 8.88464 15.5204 8.88464 15.8097V21.736ZM19.5927 21.736C19.5925 22.4659 18.9528 22.9999 18.2466 23H15.0011C14.2949 22.9999 13.6552 22.4659 13.655 21.736V9.14297C13.655 9.10237 13.6593 9.06281 13.6683 9.02486L10.3572 4.77446C10.22 4.59832 10.2109 4.35645 10.3344 4.17085C11.6058 2.26045 13.9579 1.00028 16.6238 1.00026C19.2897 1.00026 21.6419 2.26044 22.9133 4.17085C23.0368 4.35645 23.0277 4.59832 22.8905 4.77446L19.5784 9.02486C19.5874 9.06287 19.5927 9.1023 19.5927 9.14297V21.736ZM3.04388 7.66696H6.84075V2.05496C6.80078 2.04789 6.72781 2.04222 6.6202 2.07263L3.56103 2.93759C3.40859 2.98069 3.26512 3.0699 3.16461 3.17475C3.05745 3.28659 3.04388 3.36581 3.04388 3.37751V7.66696Z" fill="#542C0D"/>
</svg>
