<svg width="24" height="24" viewBox="0 0 24 24" fill="none" xmlns="http://www.w3.org/2000/svg">
<ellipse cx="11.9986" cy="9.21736" rx="7.56693" ry="7.65217" fill="#FDE272"/>
<path d="M12.0004 5.47827L13.1376 7.80844L15.6804 8.1821L13.8404 9.99592L14.2748 12.5571L12.0004 11.3478L9.72596 12.5571L10.1604 9.99592L8.32031 8.1821L10.8632 7.80844L12.0004 5.47827Z" fill="white"/>
<path d="M17.9053 14.4492L20.4835 20.3591L17.1589 19.2175L15.7689 22.478L13.4183 17.0862" fill="white"/>
<path d="M10.5808 17.0862L8.23025 22.478L6.8403 19.2174L3.51562 20.359L6.09384 14.4492" fill="white"/>
<path d="M19.2229 9.3913C19.2229 5.35347 15.9853 2.04348 11.9999 2.04348C8.01452 2.0435 4.77694 5.35348 4.77694 9.3913C4.77694 13.4254 8.01081 16.6956 11.9999 16.6957C15.9891 16.6957 19.2229 13.4254 19.2229 9.3913ZM4.46188 19.483L6.67472 18.7235L6.77079 18.7004C6.99626 18.669 7.22102 18.7922 7.31426 19.0109L8.23527 21.1726L9.85695 17.4531C8.47946 17.0796 7.24495 16.3552 6.2515 15.3798L4.46188 19.483ZM17.7477 15.3798C16.7541 16.3552 15.5198 17.0797 14.1422 17.4531L15.7639 21.1726L16.6856 19.0109L16.7333 18.9232C16.8614 18.7332 17.1023 18.647 17.3251 18.7235L19.5373 19.483L17.7477 15.3798ZM11.9999 4.95652C12.1963 4.95652 12.3759 5.06919 12.4628 5.24728L13.4799 7.33152L15.7545 7.66576C15.9487 7.69441 16.1103 7.83228 16.171 8.02106C16.2316 8.20986 16.1806 8.41715 16.04 8.55571L14.3941 10.1773L14.7831 12.4687C14.8163 12.6645 14.7364 12.8622 14.5775 12.9789C14.4187 13.0957 14.2079 13.1114 14.0341 13.019L11.9999 11.9368L9.96577 13.019C9.79195 13.1114 9.58118 13.0957 9.4223 12.9789C9.26348 12.8622 9.18354 12.6645 9.21674 12.4687L9.60503 10.1773L7.95984 8.55571C7.81923 8.41711 7.76887 8.20991 7.82951 8.02106C7.8902 7.83218 8.05167 7.69432 8.24602 7.66576L10.52 7.33152L11.5371 5.24728C11.624 5.0692 11.8036 4.95654 11.9999 4.95652ZM11.3255 8.0394C11.2503 8.19331 11.1051 8.29998 10.9372 8.32473L9.42835 8.54619L10.52 9.62228C10.6416 9.74215 10.6972 9.91499 10.6685 10.0842L10.4105 11.6026L11.7601 10.8859L11.8172 10.8601C11.9543 10.8075 12.1082 10.816 12.2397 10.8859L13.5887 11.6026L13.3314 10.0842C13.3027 9.915 13.3583 9.74214 13.4799 9.62228L14.5708 8.54619L13.0627 8.32473C12.8948 8.29996 12.7495 8.1933 12.6744 8.0394L11.9999 6.65693L11.3255 8.0394ZM20.2548 9.3913C20.2548 11.3292 19.5997 13.1111 18.5041 14.5279L20.9561 20.1481C21.0387 20.3374 21.0028 20.5586 20.8647 20.7113C20.7265 20.8639 20.5117 20.9198 20.3179 20.8533L17.444 19.8662L16.2429 22.6848C16.1616 22.8752 15.9764 22.9991 15.7713 23C15.5661 23.0008 15.3798 22.878 15.297 22.6882L13.1063 17.6637C12.7444 17.7128 12.3751 17.7391 11.9999 17.7391C11.6245 17.7391 11.255 17.7128 10.8928 17.6637L8.70283 22.6882C8.62005 22.8781 8.43375 23.0008 8.22855 23C8.02343 22.9991 7.83826 22.8752 7.75696 22.6848L6.55514 19.8662L3.68194 20.8533C3.48819 20.9198 3.274 20.8638 3.13578 20.7113C2.99757 20.5586 2.96113 20.3375 3.04375 20.1481L5.49508 14.5279C4.39966 13.1112 3.74509 11.329 3.74509 9.3913C3.74509 4.78472 7.43722 1.00002 11.9999 1C16.5626 1 20.2548 4.78471 20.2548 9.3913Z" fill="#542C0D"/>
</svg>
