<svg width="24" height="24" viewBox="0 0 24 24" fill="none" xmlns="http://www.w3.org/2000/svg">
<path d="M21 15.5268C21 16.0015 20.8104 16.4568 20.4728 16.7924C20.1352 17.1281 19.6774 17.3167 19.2 17.3167H7.3452C6.86785 17.3168 6.41009 17.5054 6.0726 17.8411L4.0908 19.8117C4.00143 19.9006 3.88758 19.9611 3.76364 19.9856C3.6397 20.0101 3.51123 19.9975 3.39448 19.9494C3.27772 19.9014 3.17793 19.8199 3.10772 19.7155C3.0375 19.611 3.00002 19.4881 3 19.3625V4.78766C3 4.31296 3.18964 3.8577 3.52721 3.52204C3.86477 3.18638 4.32261 2.9978 4.8 2.9978H19.2C19.6774 2.9978 20.1352 3.18638 20.4728 3.52204C20.8104 3.8577 21 4.31296 21 4.78766V15.5268Z" fill="#FDE272"/>
<path d="M8 8.49785C8 9.18487 8.23555 9.88088 8.61955 10.3419L11.2942 13.606C11.392 13.7402 11.5157 13.8476 11.656 13.92C11.7663 13.972 11.8848 13.9985 12.0044 13.9978C12.124 13.9971 12.2422 13.9693 12.352 13.916C12.489 13.8436 12.6099 13.7377 12.7058 13.606L15.3796 10.3419C15.7804 9.83363 16.0012 9.17734 16 8.49785C16 7.97314 15.8532 7.46172 15.5805 7.03605C15.3078 6.61038 14.923 6.29203 14.4805 6.1261C14.038 5.96017 13.5604 5.95507 13.1152 6.11152C12.67 6.26797 12.2798 6.57805 12 6.99782C11.7202 6.57805 11.33 6.26797 10.8848 6.11152C10.4396 5.95507 9.96196 5.96017 9.51949 6.1261C9.07702 6.29203 8.69217 6.61038 8.41946 7.03605C8.14675 7.46172 8 7.97314 8 8.49785Z" fill="white"/>
<path d="M20.7787 15.7124V4.4789C20.7787 4.14373 20.6459 3.82183 20.4082 3.58483C20.1705 3.34782 19.8476 3.2155 19.5115 3.2155H4.48854C4.15236 3.2155 3.8295 3.34782 3.59178 3.58483C3.35407 3.82183 3.22135 4.14373 3.22135 4.4789V19.7248C3.22139 19.7358 3.22436 19.7467 3.23052 19.7558C3.2367 19.765 3.24592 19.7726 3.25619 19.7769C3.26634 19.7809 3.27754 19.7817 3.28828 19.7796C3.29915 19.7774 3.30885 19.7718 3.31671 19.7641L5.38438 17.7026C5.85088 17.2374 6.48417 16.9759 7.14396 16.9758H19.5115C19.8476 16.9758 20.1705 16.8435 20.4082 16.6065C20.6459 16.3695 20.7787 16.0476 20.7787 15.7124ZM22 15.7124C22 16.3703 21.7377 17.0015 21.271 17.4667C20.8044 17.9319 20.1714 18.1935 19.5115 18.1935H7.14396C6.80781 18.1936 6.48578 18.3267 6.24812 18.5637L4.18045 20.6252C4.00193 20.8032 3.77426 20.9244 3.52668 20.9735C3.279 21.0226 3.02187 20.9967 2.78856 20.9004C2.55542 20.8041 2.35574 20.6415 2.21548 20.4323C2.07517 20.223 2.00004 19.9765 2 19.7248V4.4789C2 3.82097 2.26233 3.18981 2.72896 2.72458C3.19558 2.25935 3.82863 1.9978 4.48854 1.9978H19.5115C20.1714 1.9978 20.8044 2.25935 21.271 2.72458C21.7377 3.18981 22 3.82097 22 4.4789V15.7124Z" fill="#542C0D"/>
<path d="M12.9958 5.87669C13.5883 5.69215 14.2242 5.69834 14.8131 5.89406C15.402 6.08977 15.9145 6.46523 16.2775 6.96731C16.6402 7.46911 16.8357 8.07202 16.8359 8.69055L16.823 8.98308C16.7619 9.66246 16.4837 10.3075 16.0262 10.8215L16.0189 10.8297L13.1948 13.8859L13.1929 13.884C13.0377 14.0651 12.8474 14.2133 12.6308 14.3146C12.6252 14.3173 12.6192 14.3194 12.6134 14.3219C12.4221 14.4042 12.2157 14.447 12.0073 14.4481C11.799 14.4491 11.5924 14.4087 11.4003 14.3283C11.3943 14.3258 11.388 14.3228 11.382 14.3201C11.1603 14.2187 10.9645 14.0696 10.8062 13.8849L7.98019 10.8297C7.4627 10.2765 7.16413 9.4742 7.16413 8.69146C7.16413 8.07262 7.35964 7.46936 7.72254 6.96731C8.0855 6.46523 8.59797 6.08977 9.18687 5.89406C9.77577 5.69834 10.4117 5.69215 11.0042 5.87669C11.3698 5.99057 11.7075 6.17362 12 6.41331C12.2925 6.17362 12.6302 5.99057 12.9958 5.87669ZM8.39465 8.87887C8.43655 9.3144 8.61954 9.73041 8.8742 10.0015L8.87787 10.0051L11.7029 13.0603C11.711 13.0691 11.7192 13.0786 11.7268 13.0878C11.7689 13.139 11.8221 13.1795 11.8817 13.2084C11.92 13.2232 11.9607 13.2315 12.0018 13.2313C12.0419 13.2311 12.081 13.222 12.1183 13.2075C12.1778 13.1785 12.2313 13.1389 12.2732 13.0878L12.2971 13.0613L15.1139 10.0125C15.4373 9.64846 15.6155 9.17871 15.6145 8.69237L15.6099 8.55525C15.585 8.24005 15.4736 7.93645 15.2872 7.67854C15.074 7.38373 14.7729 7.1636 14.4271 7.04867C14.0812 6.93373 13.7078 6.93024 13.3598 7.03861C13.0119 7.14701 12.7065 7.3613 12.4878 7.65203C12.3725 7.80525 12.1921 7.89612 12 7.89612C11.8079 7.89612 11.6275 7.80525 11.5122 7.65203C11.2935 7.3613 10.9881 7.14701 10.6402 7.03861C10.2922 6.93024 9.91876 6.93373 9.5729 7.04867C9.22708 7.1636 8.92598 7.38373 8.71282 7.67854C8.49965 7.97341 8.38548 8.32798 8.38548 8.69146L8.39465 8.87887Z" fill="#542C0D"/>
</svg>
