<svg width="24" height="24" viewBox="0 0 24 24" fill="none" xmlns="http://www.w3.org/2000/svg">
<path d="M3 15.1377C3 11.0141 5.76923 7.55001 9.5503 6.48413H14.4564C18.2308 7.55001 21 11.0208 21 15.1377C21 17.1629 20.3277 19.0282 19.196 20.5337C18.9697 20.8335 18.6035 21 18.2241 21H5.76923C5.38979 21 5.03033 20.8402 4.80399 20.5404C3.67234 19.0348 3 17.1695 3 15.1377Z" fill="white"/>
<path d="M16.0743 4.08586L14.4567 6.48409H9.55061L7.92635 4.08586C7.61348 3.61954 7.93967 3 8.49884 3H15.5018C16.0543 3 16.3872 3.6262 16.0743 4.08586Z" fill="#FDE272"/>
<path d="M20.7508 15.2686C20.7508 11.2672 18.0585 7.8919 14.3886 6.85554L13.5575 6.62055L15.7253 3.4059L15.7274 3.40387C15.7407 3.38417 15.7442 3.36881 15.7447 3.35605C15.7452 3.34094 15.7414 3.3221 15.7314 3.30315C15.7214 3.28414 15.7075 3.27053 15.6948 3.26246C15.6842 3.25572 15.6704 3.24932 15.648 3.24924H8.35198C8.27932 3.24959 8.22444 3.32805 8.27365 3.40488L10.4517 6.62055L9.6175 6.85554C5.94053 7.89216 3.24924 11.2608 3.24924 15.2686C3.24924 17.2437 3.90198 19.0557 5.00203 20.5198C5.10624 20.6579 5.28697 20.7508 5.50966 20.7508H18.4832C18.7017 20.7508 18.8904 20.6538 18.9969 20.5127C20.0973 19.0483 20.7508 17.2367 20.7508 15.2686ZM12.0539 10.766C12.2964 10.7871 12.5142 10.9503 12.5941 11.1963L13.7172 14.6572L14.6643 11.2431C14.7566 10.9106 15.1008 10.7156 15.4334 10.8077C15.7657 10.9 15.9607 11.2443 15.8688 11.5768L15.3672 13.3876H16.7436C17.0885 13.3878 17.3681 13.6673 17.3683 14.0122C17.3683 14.3572 17.0886 14.6376 16.7436 14.6378H15.0203L14.3703 16.9827C14.2996 17.2379 14.0806 17.4108 13.8321 17.4364C13.8203 17.4378 13.8084 17.4368 13.7965 17.4374C13.7709 17.4386 13.7453 17.4395 13.7192 17.4374C13.4721 17.4206 13.248 17.2592 13.1668 17.0092L11.9959 13.4028L10.826 17.0092C10.7409 17.2713 10.4942 17.4462 10.2187 17.4405C9.94307 17.4347 9.70367 17.2493 9.6297 16.9837L8.9766 14.6378H7.25025C6.90506 14.6378 6.62462 14.3574 6.62462 14.0122C6.62477 13.6671 6.90515 13.3876 7.25025 13.3876H8.62869L8.12513 11.5778C8.03256 11.2453 8.22696 10.9003 8.55951 10.8077C8.89182 10.7154 9.23583 10.91 9.32859 11.2421L10.2767 14.649L11.3988 11.1963C11.4787 10.9503 11.6965 10.7872 11.939 10.766H12.0539ZM22 15.2686C22 17.5192 21.2528 19.5934 19.9959 21.2655L19.9949 21.2665C19.6299 21.7499 19.0552 22 18.4832 22H5.50966C4.94196 22 4.37244 21.76 4.00509 21.2737L4.00407 21.2716C2.74725 19.5994 2 17.5257 2 15.2686C2 10.9859 4.68747 7.34498 8.46694 5.91963L7.23906 4.1058L7.23703 4.10376C6.63771 3.21019 7.26109 2.00037 8.35198 2H15.648C16.7255 2.00037 17.369 3.21446 16.7609 4.10783L16.7599 4.10682L15.5371 5.91963C19.312 7.34547 22 10.9922 22 15.2686Z" fill="#542C0D"/>
<path d="M15 5.7998V7H9V5.7998H15Z" fill="#542C0D"/>
</svg>
