<svg width="24" height="24" viewBox="0 0 24 24" fill="none" xmlns="http://www.w3.org/2000/svg">
<path d="M12.157 8.26721C12.5592 7.86481 12.643 7.24328 12.3617 6.74872C12.1301 6.33983 11.9993 5.86717 11.9993 5.3642C11.9993 3.79457 13.2737 2.52026 14.8432 2.52026C16.4128 2.52026 17.6872 3.79457 17.6872 5.3642C17.6872 5.80274 17.5876 6.21824 17.4101 6.58925C17.781 6.41165 18.1966 6.31217 18.6351 6.31217C20.2047 6.31217 21.4791 7.58651 21.4791 9.15611C21.4791 10.7257 20.2047 12 18.6351 12C18.1321 12 17.6594 11.8692 17.2495 11.6397C16.7559 11.359 16.1357 11.4427 15.734 11.8442C14.6944 12.8799 12.8794 14.6952 11.8416 15.7328C11.4394 16.1352 11.3556 16.7568 11.6369 17.2513C11.8685 17.6603 11.9993 18.1329 11.9993 18.6359C11.9993 20.2055 10.7249 21.4798 9.15537 21.4798C7.58586 21.4798 6.31144 20.2055 6.31144 18.6359C6.31144 18.1973 6.411 17.7818 6.58856 17.4108C6.21759 17.5884 5.80205 17.6879 5.36346 17.6879C3.79395 17.6879 2.51953 16.4136 2.51953 14.8439C2.51953 13.2743 3.79395 12 5.36346 12C5.86652 12 6.33894 12.1309 6.74908 12.3603C7.24266 12.6411 7.86294 12.5574 8.26459 12.1558C9.30422 11.1201 11.1193 9.30487 12.157 8.26721Z" fill="#FDE272"/>
<path d="M17.1657 5.36416C17.1657 4.0825 16.1245 3.04143 14.843 3.04143C13.5614 3.04143 12.5202 4.0825 12.5202 5.36416C12.5202 5.77532 12.627 6.15929 12.8146 6.49081C13.187 7.14565 13.1064 7.95826 12.6267 8.52563L12.5258 8.63579C11.4884 9.6731 9.67217 11.4877 8.63204 12.524C8.06444 13.0913 7.18834 13.2105 6.49076 12.8137V12.8128C6.15711 12.6269 5.77315 12.5212 5.36318 12.5212C4.08161 12.5212 3.04045 13.5623 3.04045 14.8439C3.04047 16.1256 4.08162 17.1667 5.36318 17.1667C5.72207 17.1667 6.06083 17.0854 6.363 16.9408C6.56244 16.8453 6.80098 16.8853 6.95734 17.0417C7.11369 17.198 7.15371 17.4366 7.05825 17.636C6.91363 17.9383 6.83236 18.2771 6.83236 18.6358C6.83236 19.9175 7.87352 20.9586 9.15509 20.9586C10.4367 20.9586 11.4778 19.9175 11.4778 18.6358C11.4778 18.2243 11.3704 17.84 11.1825 17.5083V17.5073C10.7864 16.8092 10.9047 15.9322 11.4723 15.3642C12.5097 14.3269 14.325 12.5113 15.3651 11.4751C15.9317 10.9088 16.8065 10.79 17.5036 11.1844C17.8376 11.3714 18.2233 11.4788 18.6349 11.4788C19.9164 11.4788 20.9576 10.4377 20.9576 9.15607C20.9576 7.87444 19.9164 6.83334 18.6349 6.83334C18.276 6.83334 17.9372 6.91461 17.635 7.05922C17.4356 7.15471 17.1971 7.11466 17.0407 6.95832C16.8843 6.80197 16.8443 6.56343 16.9398 6.36398C17.0844 6.06168 17.1657 5.72293 17.1657 5.36416ZM18.2081 5.36416C18.2081 5.51955 18.1962 5.6724 18.1757 5.82241C18.326 5.80185 18.4792 5.79093 18.6349 5.79093C20.4923 5.79093 22 7.29851 22 9.15607C22 11.0137 20.4923 12.5212 18.6349 12.5212C18.0403 12.5212 17.4801 12.3664 16.9944 12.0944L16.9916 12.0926C16.7022 11.9279 16.3377 11.9773 16.102 12.2129V12.2139C15.0629 13.2491 13.2481 15.0632 12.2101 16.1011C12.0033 16.308 11.9398 16.6137 12.0379 16.8815L12.0897 16.9935L12.0907 16.9945C12.3659 17.4805 12.5202 18.0415 12.5202 18.6358C12.5202 20.4934 11.0125 22.001 9.15509 22.001C7.29763 22.001 5.78996 20.4934 5.78996 18.6358C5.78996 18.4802 5.80086 18.3269 5.82143 18.1767C5.67142 18.1972 5.51857 18.2091 5.36318 18.2091C3.50574 18.2091 1.99807 16.7015 1.99805 14.8439C1.99805 12.9864 3.50572 11.4788 5.36318 11.4788C5.88345 11.4788 6.37685 11.5976 6.81755 11.8093L7.00363 11.9056L7.0064 11.9074C7.29591 12.0721 7.66035 12.0227 7.89606 11.7871V11.7861C8.93517 10.7509 10.75 8.93679 11.788 7.89889C12.0242 7.66252 12.0735 7.29706 11.9083 7.00645L11.9074 7.00553C11.6322 6.51954 11.4778 5.95847 11.4778 5.36416C11.4778 3.50656 12.9855 1.99902 14.843 1.99902C16.7004 1.99902 18.2081 3.50656 18.2081 5.36416Z" fill="#542C0D"/>
</svg>
