<svg width="24" height="24" viewBox="0 0 24 24" fill="none" xmlns="http://www.w3.org/2000/svg">
<path d="M16.2 23H7.8C6.80588 23 6 22.0804 6 20.9461V3.05394C6 1.91957 6.80588 1 7.8 1H16.2C17.1941 1 18 1.91957 18 3.05394V20.9461C18 22.0804 17.1941 23 16.2 23Z" fill="white"/>
<path d="M16 1L14.6667 4H9.33333L8 1" fill="#FDE272"/>
<path d="M17.728 20.44C17.728 21.188 17.1361 21.7554 16.455 21.7555H7.54498C6.86391 21.7554 6.27199 21.188 6.27197 20.44V3.55998C6.27199 2.81204 6.86391 2.24463 7.54498 2.24452H16.455C17.1361 2.24463 17.728 2.81204 17.728 3.55998V20.44ZM19 3.55998C19 2.16769 17.8826 1.00011 16.455 1H7.54498C6.1174 1.00011 5.00002 2.16769 5 3.55998V20.44C5.00002 21.8323 6.1174 22.9999 7.54498 23H16.455C17.8826 22.9999 19 21.8323 19 20.44V3.55998Z" fill="#542C0D"/>
<path d="M14.8402 4.32007L15.0246 4.01198L16.2624 1.93643L15.1623 1.30809L14.1089 3.07555H9.89109L8.83767 1.30809L7.73764 1.93643L8.97544 4.01198L9.15981 4.32007H14.8402Z" fill="#542C0D"/>
</svg>
