<svg width="24" height="24" viewBox="0 0 24 24" fill="none" xmlns="http://www.w3.org/2000/svg">
<path d="M12.0007 21.4343C17.2111 21.4343 21.435 17.2104 21.435 12C21.435 6.78956 17.2111 2.56567 12.0007 2.56567C6.79029 2.56567 2.56641 6.78956 2.56641 12C2.56641 17.2104 6.79029 21.4343 12.0007 21.4343Z" fill="white"/>
<path d="M12.9436 7.28284H9.16992V12.9434H12.9436C13.6943 12.9434 14.4142 12.6452 14.945 12.1144C15.4757 11.5837 15.7739 10.8638 15.7739 10.1131C15.7739 9.36249 15.4757 8.64259 14.945 8.11181C14.4142 7.58103 13.6943 7.28284 12.9436 7.28284Z" fill="#FDE272"/>
<path d="M20.8686 12C20.8686 7.1022 16.8978 3.13138 12 3.13138C7.1022 3.13138 3.13138 7.1022 3.13138 12C3.13138 16.8978 7.1022 20.8686 12 20.8686C16.8978 20.8686 20.8686 16.8978 20.8686 12ZM22 12C22 17.5231 17.5231 22 12 22C6.47695 22 2 17.5231 2 12C2 6.47695 6.47695 2 12 2C17.5231 2 22 6.47695 22 12Z" fill="#542C0D"/>
<path d="M15.208 10.1131C15.208 9.51263 14.9693 8.93651 14.5447 8.51189C14.1201 8.08726 13.5439 7.84854 12.9434 7.84854H9.7354V12.3777H12.9434C13.5439 12.3777 14.1201 12.139 14.5447 11.7144C14.9693 11.2898 15.208 10.7137 15.208 10.1131ZM16.3394 10.1131C16.3394 11.0139 15.9823 11.8781 15.3453 12.515C14.7084 13.152 13.8442 13.5091 12.9434 13.5091H9.7354V16.7172C9.7354 17.0298 9.48233 17.2828 9.16971 17.2828C8.85708 17.2828 8.60402 17.0298 8.60402 16.7172V7.28285C8.60402 6.97022 8.85708 6.71715 9.16971 6.71715H12.9434C13.8442 6.71715 14.7084 7.07432 15.3453 7.71126C15.9823 8.3482 16.3394 9.21237 16.3394 10.1131Z" fill="#542C0D"/>
</svg>
