<svg width="24" height="24" viewBox="0 0 24 24" fill="none" xmlns="http://www.w3.org/2000/svg">
<path d="M9.98642 2.57022C11.7814 3.73661 12 6.61194 12 6.61194C12 6.61194 9.30851 7.59613 7.51361 6.42978C5.71866 5.26339 5.5 2.38806 5.5 2.38806C5.5 2.38806 8.19147 1.40387 9.98642 2.57022Z" fill="#FDE272"/>
<path d="M14.0136 2.57022C12.2186 3.73661 12 6.61194 12 6.61194C12 6.61194 14.6915 7.59613 16.4864 6.42978C18.2813 5.26339 18.5 2.38806 18.5 2.38806C18.5 2.38806 15.8085 1.40387 14.0136 2.57022Z" fill="#FDE272"/>
<rect x="4.5" y="12" width="15" height="2" fill="#FDE272"/>
<path d="M18.5 14H5.5L6.86842 22H17.1316L18.5 14Z" fill="white"/>
<path d="M13.8213 1.66833C14.913 0.973116 16.2361 0.93828 17.2202 1.04604C17.7213 1.10094 18.1584 1.19497 18.4702 1.27566C18.6264 1.31611 18.7522 1.35401 18.8405 1.38164C18.8845 1.39542 18.9192 1.40668 18.9437 1.41493C18.956 1.41905 18.9663 1.42268 18.9733 1.42512C18.9766 1.42628 18.9795 1.4271 18.9816 1.42783C18.9826 1.4282 18.9836 1.42826 18.9843 1.42851L18.985 1.42919H18.9857L19.0656 1.4652C19.2167 1.54935 19.3164 1.70227 19.3319 1.87281L19.3326 1.95977V1.96113C19.3326 1.96189 19.332 1.9634 19.3319 1.96452C19.3317 1.96673 19.3315 1.96988 19.3312 1.97335C19.3306 1.98064 19.3297 1.9907 19.3285 2.00325C19.326 2.02866 19.3222 2.06459 19.3168 2.1099C19.3059 2.20069 19.2888 2.32966 19.2617 2.48695C19.2077 2.8006 19.1147 3.23237 18.9589 3.7057C18.6529 4.635 18.0756 5.81006 16.9841 6.50532C15.8925 7.20046 14.5699 7.23532 13.5859 7.1276C13.1808 7.08324 12.8176 7.0121 12.5286 6.94418V11.0081H19.9714C20.2633 11.0081 20.5 11.2417 20.5 11.5298V14.1406C20.4999 14.4286 20.2632 14.6623 19.9714 14.6623H19.1007L17.8486 22.5591C17.8083 22.8129 17.5865 22.9999 17.3262 23H6.67382C6.41348 23 6.1917 22.8129 6.15139 22.5591L4.89934 14.6623H4.02863C3.73671 14.6623 3.50005 14.4287 3.5 14.1406V11.5298C3.5 11.2417 3.73667 11.0081 4.02863 11.0081H11.4714V6.94418C11.1824 7.01211 10.8193 7.08324 10.4141 7.1276C9.4301 7.23534 8.1075 7.20049 7.01591 6.50532C5.92433 5.81007 5.34715 4.63502 5.04114 3.7057C4.88528 3.23237 4.79227 2.80061 4.73828 2.48695C4.71121 2.32966 4.69407 2.20069 4.68321 2.1099C4.67779 2.06459 4.67399 2.02866 4.67151 2.00325C4.67029 1.9907 4.6694 1.98064 4.66876 1.97335C4.66846 1.96989 4.66825 1.96672 4.66807 1.96452C4.66798 1.9634 4.66744 1.96189 4.66738 1.96113V1.95977C4.64926 1.72626 4.79126 1.50912 5.01429 1.42919H5.01498L5.01567 1.42851C5.01639 1.42826 5.01737 1.42821 5.01842 1.42783C5.02051 1.4271 5.02331 1.42629 5.02668 1.42512C5.03364 1.4227 5.04345 1.41902 5.05559 1.41493C5.0801 1.40667 5.11536 1.39547 5.15953 1.38164C5.24779 1.354 5.37359 1.3161 5.52984 1.27566C5.84162 1.19497 6.27865 1.10093 6.77982 1.04604C7.76381 0.938286 9.08639 0.973234 10.178 1.66833C11.1096 2.26157 11.6665 3.2042 12 4.04538C12.3335 3.20427 12.8899 2.26157 13.8213 1.66833ZM7.12604 21.9565H16.874L18.031 14.6623H5.96899L7.12604 21.9565ZM4.55725 13.6188H19.4427V12.0516H4.55725V13.6188ZM9.60535 2.54537C8.81779 2.04383 7.79155 1.98478 6.89683 2.08273C6.45876 2.1307 6.07354 2.21394 5.79828 2.28518C5.79136 2.28697 5.78441 2.28884 5.77763 2.29061C5.77883 2.29767 5.77984 2.30515 5.78108 2.31235C5.82874 2.58919 5.9106 2.96946 6.04676 3.38301C6.32501 4.22799 6.80175 5.12666 7.58928 5.62827C8.37688 6.12985 9.40303 6.18889 10.2978 6.09091C10.7359 6.04293 11.1211 5.95971 11.3963 5.88846C11.4031 5.8867 11.4096 5.88409 11.4163 5.88235C11.4152 5.87554 11.4148 5.86824 11.4136 5.86129C11.3659 5.58446 11.284 5.20417 11.1479 4.79063C10.8696 3.9457 10.3928 3.047 9.60535 2.54537ZM17.1032 2.08273C16.2084 1.98477 15.1822 2.04381 14.3946 2.54537C13.6072 3.04699 13.1304 3.94567 12.8521 4.79063C12.716 5.20418 12.6341 5.58446 12.5864 5.86129C12.5852 5.86827 12.5842 5.87551 12.583 5.88235C12.5899 5.88415 12.5966 5.88665 12.6037 5.88846C12.8789 5.95971 13.2641 6.04293 13.7022 6.09091C14.5969 6.18888 15.6231 6.12984 16.4107 5.62827C17.1982 5.12665 17.675 4.22797 17.9532 3.38301C18.0894 2.96946 18.1713 2.58918 18.2189 2.31235C18.2202 2.30518 18.2205 2.29764 18.2217 2.29061C18.2151 2.28889 18.2085 2.28692 18.2017 2.28518C17.9265 2.21393 17.5413 2.13071 17.1032 2.08273Z" fill="#542C0D"/>
</svg>
