<svg width="24" height="24" viewBox="0 0 24 24" fill="none" xmlns="http://www.w3.org/2000/svg">
<rect x="4" y="2" width="16" height="20" fill="white"/>
<circle cx="12" cy="14" r="4" fill="#FDE272"/>
<path d="M19.8425 3.65861C19.8425 2.82363 19.1589 2.14653 18.3159 2.14653H5.68407C4.84109 2.14653 4.15751 2.82363 4.15751 3.65861V20.3414C4.15751 21.1764 4.84109 21.8535 5.68407 21.8535H18.3159C19.1589 21.8535 19.8425 21.1764 19.8425 20.3414V3.65861ZM21 20.3414C21 21.8098 19.7984 23 18.3159 23H5.68407C4.20158 23 3 21.8098 3 20.3414V3.65861C3 2.19019 4.20158 1 5.68407 1H18.3159C19.7984 1 21 2.19019 21 3.65861V20.3414Z" fill="#542C0D"/>
<path d="M12.0098 5C12.5574 5 13.001 5.44752 13.001 6C13.001 6.55248 12.5574 7 12.0098 7H11.9922C11.4446 7 11.001 6.55248 11.001 6C11.001 5.44752 11.4446 5 11.9922 5H12.0098Z" fill="#542C0D"/>
<path d="M15.7916 14C15.7916 11.9061 14.0939 10.2084 12 10.2084C9.90608 10.2084 8.20841 11.9061 8.20841 14C8.20841 16.0939 9.90608 17.7916 12 17.7916C14.0939 17.7916 15.7916 16.0939 15.7916 14ZM17 14C17 16.7615 14.7615 19 12 19C9.23846 19 7 16.7615 7 14C7 11.2385 9.23846 9 12 9C14.7615 9 17 11.2385 17 14Z" fill="#542C0D"/>
</svg>
